<svg xmlns="http://www.w3.org/2000/svg" viewBox="0 0 512 512"><defs><style>.cls-1{fill:none;}.cls-2{fill:#fff;}</style></defs><title>logoWhite</title><g id="Layer_2" data-name="Layer 2"><g id="Logo"><g id="logoWhite"><rect id="Limits" class="cls-1" width="512" height="512"/><path id="CR" class="cls-2" d="M454,457.38l-61.2-92.21a124.6,124.6,0,0,0,34.35-86A126,126,0,0,0,301.3,153.33H208.22a31.11,31.11,0,0,0-31.11,31.11c0,.12,0,.25,0,.37s0,.24,0,.36V334.48c-37.65-25-62.84-67.52-63.5-115.68-.51-37.51,14-73.22,41-100.57S217,75.81,254.43,75.74h.27a139.56,139.56,0,0,1,87.07,30.07h0a31.1,31.1,0,1,0,38.43-48.92h0l-.59-.45h0A201.18,201.18,0,0,0,254.71,13.52h-.39c-54.23.1-105.4,21.78-144.07,61.05S50.66,165.38,51.4,219.64A203.72,203.72,0,0,0,177.11,404.88v70a31.11,31.11,0,0,0,62.22,0h0V419.59q7.63.57,15.37.57a201.7,201.7,0,0,0,87-19.46l60.64,91.37h0A31.11,31.11,0,1,0,454,457.38ZM341.56,328a141.1,141.1,0,0,1-102.23,29.06V215.55h62a63.71,63.71,0,0,1,63.64,63.64A62.14,62.14,0,0,1,341.56,328Z"/></g></g></g></svg>