<svg xmlns="http://www.w3.org/2000/svg" xmlns:xlink="http://www.w3.org/1999/xlink" viewBox="0 0 512 512">
    <defs>
        <style>
            .logo_mainGradient {
                fill: url(#logo_main_gradient);
            }
        </style>
        <linearGradient id="logo_main_gradient" x1="131.4" y1="438.31" x2="448.54" y2="121.17"
            gradientUnits="userSpaceOnUse">
            <stop offset="0" stop-color="#4eb74e" />
            <stop offset="1" stop-color="#ffff6c" stop-opacity="0.99" />
        </linearGradient>
    </defs>

    <path class="logo_mainGradient"
        d="M457.75,457.38l-61.2-92.21a124.65,124.65,0,0,0,34.35-86A126,126,0,0,0,305,153.33H212a31.11,31.11,0,0,0-31.12,31.11c0,.12,0,.25,0,.37s0,.24,0,.36V334.48C143.19,309.49,118,267,117.35,218.8c-.51-37.51,14-73.22,41-100.57s62.37-42.42,99.85-42.49h.26a139.59,139.59,0,0,1,87.08,30.07h0a31.1,31.1,0,1,0,38.43-48.92h0l-.59-.45h0a201.22,201.22,0,0,0-124.9-42.89h-.38c-54.24.1-105.4,21.78-144.08,61.05S54.39,165.38,55.13,219.64A203.76,203.76,0,0,0,180.84,404.88v70a31.12,31.12,0,0,0,62.23,0h0V419.59c5.08.38,10.21.57,15.36.57a201.67,201.67,0,0,0,87-19.46l60.64,91.37h0a31.11,31.11,0,1,0,51.66-34.69ZM345.3,328a141.1,141.1,0,0,1-102.23,29.06V215.55h62a63.71,63.71,0,0,1,63.64,63.64A62.16,62.16,0,0,1,345.3,328Z" />
</svg>