<svg xmlns="http://www.w3.org/2000/svg" viewBox="0 0 1193 467">
    <path fill="#fff"
        d="M190.37,269.43V285H137V267.21H119.23V178.28H137V160.5H226v35.57H208.16V178.28H154.8v88.93h33.35l2.22-2.23V231.64H172.59V213.85H226V285H208.16V267.21H192.6Z" />
    <path fill="#fff"
        d="M279.3,249.42V285H243.73V178.28h17.79V160.5h71.14v17.78h17.78V285H314.87V249.42Zm35.57-17.78V178.28H279.3v53.36Z" />
    <path fill="#fff"
        d="M386,231.64V285H368.23V160.5H403.8v35.57h53.35V160.5h35.57V285H457.15V231.64H439.37v35.57H403.8V231.64Z" />
    <path fill="#fff" d="M510.51,285V160.5h88.93v17.78H546.08v35.57h53.36v17.79H546.08v35.57h53.36V285Z" />
    <path fill="#fff" d="M688.36,285V160.5h88.93v17.78h17.79v88.93H777.29V285ZM759.5,178.28H723.93v88.93H759.5Z" />
    <path fill="#fff" d="M812.86,285V160.5h88.93v17.78H848.43v35.57h53.36v17.79H848.43v35.57h53.36V285Z" />
    <path fill="#fff"
        d="M990.71,249.42V160.5h35.57v88.92H1008.5v17.79H990.71V285H955.14V267.21H937.36V249.42H919.57V160.5h35.57v88.92Z" />
    <path fill="#fff" d="M1044.07,285V267.21h17.78V285Z" />
    <rect fill="#fff" x="745.35" y="87.71" width="18.21" height="18.21" />
    <rect fill="#fff" x="690.72" y="87.71" width="18.21" height="18.21" />
    <polygon fill="#fff"
        points="126.14 69.5 126.14 60.39 117.03 60.39 107.93 60.39 107.93 69.5 98.82 69.5 98.82 60.39 89.72 60.39 80.61 60.39 80.61 69.5 71.5 69.5 71.5 78.6 71.5 87.71 80.61 87.71 80.61 96.82 89.72 96.82 89.72 105.92 98.82 105.92 98.82 115.03 107.93 115.03 107.93 105.92 117.03 105.92 117.03 96.82 126.14 96.82 126.14 87.71 135.25 87.71 135.25 78.6 135.25 69.5 126.14 69.5" />
    <polygon fill="#fff"
        points="208.09 69.5 208.09 60.39 198.99 60.39 189.88 60.39 189.88 69.5 180.78 69.5 180.78 60.39 171.67 60.39 162.56 60.39 162.56 69.5 153.46 69.5 153.46 78.6 153.46 87.71 162.56 87.71 162.56 96.82 171.67 96.82 171.67 105.92 180.78 105.92 180.78 115.03 189.88 115.03 189.88 105.92 198.99 105.92 198.99 96.82 208.09 96.82 208.09 87.71 217.2 87.71 217.2 78.6 217.2 69.5 208.09 69.5" />
    <polygon fill="#fff"
        points="290.05 69.5 290.05 60.39 280.94 60.39 271.84 60.39 271.84 69.5 262.73 69.5 262.73 60.39 253.63 60.39 244.52 60.39 244.52 69.5 235.41 69.5 235.41 78.6 235.41 87.71 244.52 87.71 244.52 96.82 253.63 96.82 253.63 105.92 262.73 105.92 262.73 115.03 271.84 115.03 271.84 105.92 280.94 105.92 280.94 96.82 290.05 96.82 290.05 87.71 299.15 87.71 299.15 78.6 299.15 69.5 290.05 69.5" />
    <rect fill="#fff" x="799.99" y="87.71" width="18.21" height="18.21" />
    <rect fill="#fff" x="854.63" y="87.71" width="18.21" height="18.21" />
    <rect fill="#fff" x="909.26" y="87.71" width="18.21" height="18.21" />
    <rect fill="#fff" x="526.81" y="87.71" width="18.21" height="18.21" />
    <rect fill="#fff" x="581.44" y="87.71" width="18.21" height="18.21" />
    <rect fill="#fff" x="636.08" y="87.71" width="18.21" height="18.21" />
    <rect fill="#fff" x="963.9" y="87.71" width="18.21" height="18.21" />
    <rect fill="#fff" x="1018.54" y="87.71" width="18.21" height="18.21" />
    <rect fill="#fff" x="144.35" y="344" width="601" height="17.8" />
    <rect fill="#fff" x="326" y="88" width="164.38" height="17.92" />
    <rect fill="#fff" x="968" y="420.54" width="30.05" height="9.11"
        transform="translate(1408.11 -557.93) rotate(90)" />
    <path fill="#fff"
        d="M38.44,304.75v4.49H30.25V317H21.68v7.79H13.5v80.3l4.4-.12,4.37-.11.07-5.46,0-5.45,4.13-.12,4.13-.12V382.87h7.8v10.91h8.18v11.34L51,405l4.36-.11.12-11,.08-11H67.27v22.21h9v-11.3h8.18V382.87h8.18v10.91h8.57v11.3h10.13V324.82h-8.68l.27-3.9.23-3.89h-9l.12-3.9.12-3.89h-7.6v-9H38.44Z" />
    <path fill="#fff"
        d="M1116.52,100.08v9.07h-18.94v8.17h-17.64v9.47h-19.37v9.47h9.86l.13,4.86.13,4.82,4.6.13,4.65.13v8.56h69.71v-9h9.9V135.18h7.53l.13-4.6.13-4.65H1177l-.08-31.5-.13-31.54-4.74-.13-4.73-.13V53.2h-7.75V45.07l-4.86-.13-4.82-.13-.13-4.9-.13-4.91-24.57.26c-13.51.17-29.18.3-34.82.3H1080l-.13,4.65-.13,4.6-4.51.09-4.52,0v9.12h-10.12v9.47h19.37V73h17.64v9.47h18.94V90.9l9-.05v9.26Z" />
    <path id="path5222" fill="#fff"
        d="M996.68,333.57v9.11h9.11v-9.11Zm-36.42,0v9.11h9.1v-9.11Zm0,36.43h18.21v9.1H960.26Zm45.53,0v9.1H987.57V370Zm0-54.64v-9.1h9.1v9.1Zm-45.53,0h9.1v9.11h27.32v-9.11h9.11v9.11h9.1v9.1H1024v9.11h9.11V370H1024V351.79h-9.11V370h-9.1v-9.11H960.26V370h-9.11V351.79H942V370h-9.1V342.68H942v-9.11h9.11v-9.1h9.11Zm-9.11-9.1h9.11v9.1h-9.11Z" />
    <path id="path5222-2" data-name="path5222" fill="#fff"
        d="M1142.38,333.57v9.11h9.1v-9.11Zm-36.43,0v9.11h9.11v-9.11Zm0,36.43h18.22v9.1H1106Zm45.53,0v9.1h-18.21V370Zm0-54.64v-9.1h9.11v9.1Zm-45.53,0h9.11v9.11h27.32v-9.11h9.1v9.11h9.11v9.1h9.11v9.11h9.1V370h-9.1V351.79h-9.11V370h-9.11v-9.11H1106V370h-9.1V351.79h-9.11V370h-9.1V342.68h9.1v-9.11h9.11v-9.1h9.1Zm-9.1-9.1h9.1v9.1h-9.1Z" />
    <path id="path5222-3" data-name="path5222" fill="#fff"
        d="M851,333.57v9.11h9.11v-9.11Zm-36.42,0v9.11h9.11v-9.11Zm0,36.43h18.21v9.1H814.56Zm45.53,0v9.1H841.88V370Zm0-54.64v-9.1h9.11v9.1Zm-45.53,0h9.11v9.11H851v-9.11h9.11v9.11h9.11v9.1h9.1v9.11h9.11V370H878.3V351.79h-9.1V370h-9.11v-9.11H814.56V370h-9.11V351.79h-9.1V370h-9.11V342.68h9.11v-9.11h9.1v-9.1h9.11Zm-9.11-9.1h9.11v9.1h-9.11Z" />
</svg>