<svg xmlns="http://www.w3.org/2000/svg" viewBox="0 0 1193 467">
    <path fill="#fff"
        d="M334.72,152a5.41,5.41,0,0,1,1.95-3.12,7,7,0,0,1,3-1.3l1.69-.26c1.3-.26,2.6-.52,3.9-.91,4-1.17,7.93-2.47,12-3.9,1.17-.39,2.34-.91,3.64-1.3,3.38-1.17,6.63-2.34,9.88-3.77a184.42,184.42,0,0,0,21.71-11.7A135,135,0,0,0,423,100.28a115,115,0,0,0,10.79-14.69,57.7,57.7,0,0,0,6.89-16.51A47.66,47.66,0,0,0,442,57.9a37,37,0,0,0-4.68-18.33c-3.25-5.59-8.19-10-15-13.26a60.7,60.7,0,0,0-14-4.42,79.56,79.56,0,0,0-14.82-1.3c-2.6,0-5.2.13-7.67.26-11.18.65-23.66,3.25-37.57,7.67A187.37,187.37,0,0,0,309,46.07c-12.35,7.41-21.58,15.73-27.83,25.09-3,4.29-4.55,8.19-4.55,11.57.26,4.55,1.95,6.89,5.07,6.89A9.54,9.54,0,0,0,287,87.41q1.77-1.36,3.12-2.34a31.66,31.66,0,0,0,2.61-1.82c.78-.52,1.69-1.17,2.6-1.82,9.1-6.24,18.46-12.09,28.08-17.68a26.63,26.63,0,0,1,4.68-2.47c.65-.39,1.43-.78,2.21-1.17a.71.71,0,0,1,.39.65,2.91,2.91,0,0,1-.39,1.3,14.58,14.58,0,0,0-.65,1.69.48.48,0,0,1-.13.39,321,321,0,0,0-11.7,32.5,383.62,383.62,0,0,0-9.75,38.74,185.1,185.1,0,0,0-3.9,35.1,77.68,77.68,0,0,0,.65,10c.65,6.63,1.69,11.44,3.12,14.56s3,4.81,4.94,4.81c4.16,0,9-6.37,14.43-19A294,294,0,0,0,334.72,152Zm8.58-35.62c.78-3.12,1.56-6.11,2.47-9.1.65-2.21,2-6.37,4.16-12.74s4.68-13,7.54-20.41a207.39,207.39,0,0,1,8.19-19.37c2.6-5.59,4.68-8.58,6.37-9.23,9.75-1.95,17.94-3,24.57-3h.52q19.5,0,19.5,11.31c0,6.37-5.2,15.34-15.6,27a126.27,126.27,0,0,1-27,22.75,206.53,206.53,0,0,1-29.38,14.69,10.84,10.84,0,0,1-1.56.52.48.48,0,0,1-.39.13A19,19,0,0,0,343.3,116.4Z" />
    <path fill="#fff"
        d="M902.81,111.33a3.8,3.8,0,0,0-1.17-.26,2.77,2.77,0,0,0-2.6,1.69,281.79,281.79,0,0,1-20.54,34.32C869.14,160.34,862,167,856.92,167c-3.38,0-5.72-3.25-7.15-9.88a44.79,44.79,0,0,1-.91-9.62,112.57,112.57,0,0,1,3.51-26.91A211.7,211.7,0,0,1,859,98.07l3.25-8.58A132,132,0,0,1,884,91.57,24.17,24.17,0,0,0,890.72,93c2.21,0,4-1.17,5.33-3.64a35.83,35.83,0,0,0,2.08-5.07l.13-.26c1.17-2.21,1.82-3.9,1.82-5.33a5.57,5.57,0,0,0-3.38-5.07c-2.47-1.43-10.92-2.73-25.61-3.77l-.65-.13c2.21-5.33,4.29-9.88,6.11-13.52,2.86-5.59,4.29-9.36,4.29-11.44a5.75,5.75,0,0,0-.91-3.12,9.05,9.05,0,0,1-1.43-3,2.4,2.4,0,0,0-.91-1.17,19.11,19.11,0,0,0-1.69-1.3,2.74,2.74,0,0,0-1.43-.52,5.83,5.83,0,0,1-1.43-.13l-2.73-.13a17.9,17.9,0,0,0-5.85,1.17,8.19,8.19,0,0,0-3.38,2.6c-5.33,7.41-10.92,17.42-16.77,29.9q-24,.19-25.35,3.9c-.91,2.47-1.56,4.42-2.21,6.11a.48.48,0,0,0-.13.39,17.28,17.28,0,0,0-1.69,7.15c0,2.6,2.08,3.9,6.11,3.9,1.69,0,3.9-.13,6.5-.39s5.33-.39,8.19-.52a249.92,249.92,0,0,0-9.84,31.74c-1.13,1.7-2.35,3.6-3.68,5.7-5.33,8.45-11.17,17-17.68,26s-12.74,15.08-18.46,18.07a7.92,7.92,0,0,1-3.64.91c-2.08,0-3.77-1-5.2-3.12s-2.21-5.2-2.21-9.75A68.59,68.59,0,0,1,777.1,144a93.27,93.27,0,0,1,13.52-30.81,31.14,31.14,0,0,1,9.1-8.84C797.9,108.6,797,112,797,114.19c.13,2.73,1.17,4.16,3,4.16s4.55-1.56,7.67-4.81a24.75,24.75,0,0,0,5.07-6.89,17.17,17.17,0,0,0,1.7-7.8,21.17,21.17,0,0,0-.53-4.81,9.91,9.91,0,0,0-5.33-7.41,19.07,19.07,0,0,0-8.71-2.08,28,28,0,0,0-9.62,1.82C783.08,89,776.58,94,771,101.71A95.1,95.1,0,0,0,757.6,128.1c-.2.59-.37,1.17-.56,1.75-1,2.06-2,4.28-3.07,6.7-3.25,7.28-6.76,14.17-10.27,20.67a101.73,101.73,0,0,1-13.27,18.59,2.51,2.51,0,0,1-1.82,1.3.48.48,0,0,1-.39-.13c-.65-.13-1.3-.91-1.69-2.21A37.21,37.21,0,0,1,725,163.72c0-9.1,4.16-27.43,12.36-55.12,1.29-4.81,1.95-7.93,1.95-9.1A7.39,7.39,0,0,0,737.2,94a7.88,7.88,0,0,0-5.73-2.21,11,11,0,0,0-4.16.91,14.54,14.54,0,0,0-7.28,7.93c-3.77,8.06-7.15,15.47-9.88,22.36s-5.85,13.78-9.1,20.67a186.84,186.84,0,0,1-12.74,22.36,22.09,22.09,0,0,1-4.29,5.07,13.37,13.37,0,0,0,.13-2.21,11.18,11.18,0,0,1,.13-2.08,153.76,153.76,0,0,1,7.93-33.54l1.56-5.07a163.38,163.38,0,0,1,9.49-23.66,10.68,10.68,0,0,0,1.17-4.42,6.92,6.92,0,0,0-3.25-6.24,12.38,12.38,0,0,0-6.89-2.21,8.25,8.25,0,0,0-6.11,2.6,43.18,43.18,0,0,0-3.51,5.07,162.29,162.29,0,0,0-8.58,18.07c-.48,1.16-.94,2.3-1.39,3.42-2,3.07-4.47,7-7.31,11.66q-6.43,10.92-13.65,21.84a105.23,105.23,0,0,1-13.13,16.9c-2,1.82-3.52,2.73-4.69,2.73s-2.08-.78-2.59-2.47a21.44,21.44,0,0,1-.79-6.37,107.59,107.59,0,0,1,2.34-20.54,329.78,329.78,0,0,1,32.77-96.46,3.67,3.67,0,0,0,.52-1.95,6.69,6.69,0,0,0-2.73-5.07,8.84,8.84,0,0,0-5.85-2.34,6.33,6.33,0,0,0-4.94,2.47,106.71,106.71,0,0,0-13.4,21.45Q636,73.83,631.89,85.33c-1.56,4.29-3.25,8.58-5.07,13.13-.26.91-.65,1.3-1,1.3s-.79-.26-1.31-.78a10,10,0,0,0-6-2h-1.17a34.47,34.47,0,0,0-14.3,4,48.34,48.34,0,0,0-11.44,9.1c-4.86,5.2-9.26,12.28-13.18,21.08q-1.3,1.72-2.67,3.49a100.3,100.3,0,0,1-10.53,12.09c-3.52,3.51-6.5,5.2-9,5.2a1.67,1.67,0,0,1-.78-.13c3.26-9.75,6.11-19.5,8.59-29.12.65-2.47,1.17-5.07,1.69-7.54a47.54,47.54,0,0,0,.65-7.41,30.93,30.93,0,0,0-1.82-10.14c-1.69-4.16-4.56-6.24-8.72-6.24h-.26a20.22,20.22,0,0,0-7.41,1.3,5.89,5.89,0,0,1-2.08.39,2.86,2.86,0,0,1-1-.13,13.52,13.52,0,0,0-3.77-.65,19.14,19.14,0,0,0-4.68.52c-5.46,1.69-10.27,5.2-14.43,10.79a111.54,111.54,0,0,0-10.27,15.86,104.49,104.49,0,0,0-9.49,22.23,70.55,70.55,0,0,0-3,18.85q0,13.85,6.24,21.84c4.16,5.33,9.23,7.93,15.08,7.93,5.2,0,10.53-2.34,16.12-7s10.53-11.83,14.82-21.84a2.83,2.83,0,0,1,.65-1,.79.79,0,0,1,.78-.39,3.31,3.31,0,0,1,.91.26,15.25,15.25,0,0,0,3.9.65,12.34,12.34,0,0,0,7.68-2.73,33.47,33.47,0,0,0,5.51-5.32,67.78,67.78,0,0,0-1.49,13.64,38.15,38.15,0,0,0,.78,7.93,26,26,0,0,0,7.15,13,16.51,16.51,0,0,0,11.7,5.07c3.25,0,6.63-1.3,10.14-3.77s6.63-6.37,9.62-12c1.69-3.25,3.38-6.76,5.2-10.53a17.65,17.65,0,0,0-.39,3.77,21.71,21.71,0,0,0,2.34,9.49,20.18,20.18,0,0,0,6.24,8.06,13.5,13.5,0,0,0,9.1,3.25c3,0,6.37-1.17,9.88-3.38s7.16-5.85,10.93-11c4.28-6.16,8.28-12.45,12.06-18.84-.16,1.63-.24,3.19-.24,4.67,0,8.32,2.21,15.21,6.5,20.8q5.26,7,12.87,7c6.5,0,12.35-4,17.68-12.22,2.21-3.51,4.29-6.89,6.11-10.14l.52-1c.39,8.71,2.08,15.21,5.2,19.37s6.89,6.24,11.31,6.24a20.5,20.5,0,0,0,11-3.77c4.67-3.57,10.5-12.75,17.4-27.44A44,44,0,0,0,755.13,172c3.12,7.28,6.5,12.48,10.27,15.73s7.54,4.81,11.57,4.81a20.94,20.94,0,0,0,10.66-3.12,50.93,50.93,0,0,0,10.53-8.58,112.94,112.94,0,0,0,15.47-21.32c3.12-5.56,6-11.19,8.82-16.89-.24,2.9-.37,5.72-.37,8.44a55.56,55.56,0,0,0,2.47,17.55q4.1,11.51,10.53,17.55c4.29,4,9,6,13.91,6q13.46,0,24.18-16.77c5.46-8.58,11.05-18.59,16.77-29.9s10.4-21.45,14-30.55a6.71,6.71,0,0,0,.26-1.43A2.71,2.71,0,0,0,902.81,111.33ZM540.37,152.41a80,80,0,0,1-6.63,14.43c-2.73,4.81-5.33,7.15-7.54,7.15-1.17,0-2.08-.91-3-2.73s-1.43-4.81-1.69-9.1a82.63,82.63,0,0,1,10.14-35.75,2.84,2.84,0,0,0,.39-.65,4.26,4.26,0,0,1,.78-1c-.13,1.3-.26,2.6-.39,3.77-.13,1.82-.26,3.51-.26,5.2a19.2,19.2,0,0,0,.13,2.73,19,19,0,0,0,7.15,12.74,2.29,2.29,0,0,1,1.17,2A5.72,5.72,0,0,1,540.37,152.41Zm6.76-20.8c-1.17,3.77-2.34,7.41-3.38,11.18a2.66,2.66,0,0,1-.91-1.3,4.62,4.62,0,0,1-.26-1.3v-.78a55.4,55.4,0,0,1,8.32-29.51c.13-.13.13-.13.13-.26a9.11,9.11,0,0,1,1-1.3,9.49,9.49,0,0,1,1.69-1.17A187.73,187.73,0,0,1,547.13,131.61Zm66.82,1.3a243.44,243.44,0,0,1-12.35,23.4c-4.29,7-7.41,10.92-9.62,11.83-.78-.65-1.17-2.08-1.17-4.16,0-3.25.91-7.8,2.6-13.65a111.65,111.65,0,0,1,6.76-17.42,64.63,64.63,0,0,1,9.75-15c3.51-4,7.28-6.11,11.05-6.11h.91C620.58,117.44,618,124.46,614,132.91Z" />
    <path fill="#fff"
        d="M480.38,213.77a47,47,0,0,0-11.05-14.69,72.56,72.56,0,0,0-27.73-15.83,134.62,134.62,0,0,1,13.88-39.16,182,182,0,0,1,24.84-35c.13-.13.26-.39.39-.52a32,32,0,0,1,4.29-3.9,70.63,70.63,0,0,0-2.34,16.51c.26,9.75,2.73,14.69,7.41,14.69,2.21,0,4.68-1.3,7.54-3.9s6-6.5,9.49-12.09a.78.78,0,0,0,.13-.52,2.13,2.13,0,0,0-3.77-1.17,6.51,6.51,0,0,0-.91,1,6.51,6.51,0,0,1-.91,1,3.45,3.45,0,0,1-.65.78,13.38,13.38,0,0,1-3.77,3.25,19.54,19.54,0,0,1-.26-2.6,6.33,6.33,0,0,1,.13-1.56,65.17,65.17,0,0,1,1.3-8.58c.39-2.21.78-4.29,1.17-6.5.13-.78.26-1.56.39-2.47a30,30,0,0,0,.78-6.76A17,17,0,0,0,499.17,89a6,6,0,0,0-5.2-3.64h-.78a17.07,17.07,0,0,0-9.88,3,122.34,122.34,0,0,0-19.11,19.37l-1.3,1.56-8.19,10.14-4.43,5.72a85.26,85.26,0,0,1,7.55-22.36,13.46,13.46,0,0,0,1.3-4.94V97a7.16,7.16,0,0,0-3-6,12.09,12.09,0,0,0-6.9-2.21,11.12,11.12,0,0,0-4.55,1,8.72,8.72,0,0,0-3.64,3.25,92,92,0,0,0-5.33,10,179.68,179.68,0,0,0-6.37,17.68c-1.56,5.59-3.25,13.78-5.2,24.57a164.22,164.22,0,0,0-3,28,42.91,42.91,0,0,0,.34,5.89,116.68,116.68,0,0,0-13.66-.82,142.42,142.42,0,0,0-37.7,5.07,128.58,128.58,0,0,0-27.56,11.05,5.27,5.27,0,0,0-1.17.65,94.42,94.42,0,0,0-10,5.72c-3.77,2.47-6.24,4.81-7.67,7.28a6.88,6.88,0,0,0-.91,3.25,4.63,4.63,0,0,0,2.21,4,9.27,9.27,0,0,0,5.07,1.43,12,12,0,0,0,4.68-.91c3.38-1.3,6.76-2.73,10-4.16q8.19-3.7,16.77-6.63a20.1,20.1,0,0,0,1.95-.52c1.17-.39,2.34-.78,3.38-1.17s2.34-.65,4.29-1.3q-8.58,25.55-17.29,64.48c-5.85,26-9.23,48-10.27,66v1.95a31.33,31.33,0,0,0,1.69,10.79,14.72,14.72,0,0,0,6.11,7.93c3,2.08,7.15,3.12,12.74,3.12h.26A66.1,66.1,0,0,0,383,353.65,132.18,132.18,0,0,0,401.73,347c5.85-2.47,10.66-4.81,14.69-6.76a180.9,180.9,0,0,0,23.79-14.43,125.55,125.55,0,0,0,29.51-30.29,103.39,103.39,0,0,0,14.18-27.69,72.45,72.45,0,0,0-3.52-54.08Zm-15.21,32.5A90.27,90.27,0,0,1,456.85,269a88,88,0,0,1-11.57,16.25,146.9,146.9,0,0,1-21.45,20.67,126.94,126.94,0,0,1-22.36,14.56,167.53,167.53,0,0,1-28.73,11.44,3,3,0,0,1-1.17.39,1,1,0,0,1-.65-.91,3.23,3.23,0,0,1,.13-1c.65-5.85,2.21-15.86,4.81-30s5.46-29,8.84-44.85,6.37-29.38,9.36-40.82,4.94-17.42,6.24-17.94c3.25-.26,6.37-.39,9.49-.39A101.28,101.28,0,0,1,428.51,198q18.72,3.32,28.47,11.7c6.5,5.72,9.75,13.65,9.75,23.66A59.7,59.7,0,0,1,465.17,246.27Z" />
    <path fill="#fff"
        d="M613.63,261.22A20.49,20.49,0,0,0,610,249.78a16.16,16.16,0,0,0-12.87-6.11h-2c-8.71,0-16.12,2.34-22.23,7.15a26.26,26.26,0,0,0-10.27,15.08,29.69,29.69,0,0,0-1.17,8.19c0,.62,0,1.23,0,1.85-4.19,5.95-9.09,12.73-14.6,20.12a244,244,0,0,1-17.16,20.8c-5.72,6.11-10.66,10-14.95,11.57A7.86,7.86,0,0,1,512,329a6,6,0,0,1-5.85-4,23.8,23.8,0,0,1-1.69-9.49,49,49,0,0,1,1.82-13c1.17-4.16,2.47-6.76,3.9-7.93a5.18,5.18,0,0,0,4.55,2.34c3.38,0,7.41-1.82,12.22-5.59A54,54,0,0,0,539.4,277a36.53,36.53,0,0,0,5.33-19.11c0-1.43-.13-2.73-.26-4.16a9.24,9.24,0,0,0-5.46-7.93,19.6,19.6,0,0,0-8.84-2.08,27.91,27.91,0,0,0-9.1,1.56,30.46,30.46,0,0,0-10,5.72,61,61,0,0,0-8.06,8.32,77.59,77.59,0,0,0-13.78,25,87.5,87.5,0,0,0-4.94,28.47,68.73,68.73,0,0,0,.78,10.4q1.76,11.5,7,18.33c3.51,4.55,7.93,6.89,13.39,6.89a19.47,19.47,0,0,0,5.85-.91c6.37-2.08,12.35-6.11,17.94-12a123.41,123.41,0,0,0,11-13.34,26.86,26.86,0,0,0-.33,4.24c0,1.43.13,2.73.26,4.16.78,4.42,3.51,8.45,8.19,12.22a26,26,0,0,0,16.77,5.72,28.58,28.58,0,0,0,9.62-1.82,31.82,31.82,0,0,0,9.75-5.72c6.24-5.07,9.36-11.31,9.36-18.59a29.25,29.25,0,0,0-.52-5.72,99,99,0,0,0-6.89-19.76,84.8,84.8,0,0,1-3.25-9.1,30.77,30.77,0,0,1-1.43-9c0-1.3.13-2.6.26-3.9,1.43-6.63,5.59-11.57,12.48-14.56a5.77,5.77,0,0,1,3.12,4.94,11.53,11.53,0,0,1-2.86,7.28,15.85,15.85,0,0,1-6.24,5.07,2.68,2.68,0,0,0-1.17,2.08c0,1.56,1,3.12,3,4.81a9.47,9.47,0,0,0,6.24,2.6,6.31,6.31,0,0,0,4.16-1.82,18,18,0,0,0,4-3.64,39.63,39.63,0,0,0,6.37-9.36A25.37,25.37,0,0,0,613.63,261.22Zm-91.13,8.84a41.56,41.56,0,0,1,7.28-6.5,2.55,2.55,0,0,1,2.08,2.73,10.75,10.75,0,0,1-2,5.33,22.77,22.77,0,0,1-4.94,5.59c-2,1.56-3.64,2.34-5.33,2.34a3.27,3.27,0,0,1-2.86-1.69A37.26,37.26,0,0,1,522.5,270.06Zm48.62,53.43a28.16,28.16,0,0,1-6.5,7.28,10.63,10.63,0,0,1-6.11,2.34,6.94,6.94,0,0,1-6-3.25,13.71,13.71,0,0,1-2.47-8.58,29.93,29.93,0,0,1,2.34-10.66,3.06,3.06,0,0,0,.26-1,1.65,1.65,0,0,0-.13-.78l-.26-.26a2.1,2.1,0,0,0-.52-.91,9,9,0,0,0-1-.39,1.61,1.61,0,0,0-.71-.12q4.65-7.62,8.9-15.22c1.37-2.44,2.7-4.77,4-7,.09.33.18.67.28,1a74.16,74.16,0,0,0,4,10.92c.65,1.43,1.17,3,1.82,4.55l.39.78a43.73,43.73,0,0,1,3.12,12.61,11.89,11.89,0,0,1,.13,2.21A14.91,14.91,0,0,1,571.12,323.49Z" />
    <path fill="#fff"
        d="M646.26,233h.13c1.43,0,3-.91,4.68-2.6a21.62,21.62,0,0,0,5.85-11.31,6.33,6.33,0,0,0,.13-1.56,6.05,6.05,0,0,0-2.21-4.81,10,10,0,0,0-5.72-1.82h-.78a6.24,6.24,0,0,0-5.33,3.25,16.91,16.91,0,0,0-1.82,5.72c-.13,1.69-.26,2.73-.26,3.25a13.64,13.64,0,0,0,1.17,5.72C643.53,231.58,644.83,233,646.26,233Z" />
    <path fill="#fff"
        d="M857.25,267.85a1.88,1.88,0,0,0-.91-.26c-.91,0-1.56.52-2.21,1.69-4.29,6.63-9.36,15.08-15,25.35-4.55,8.32-9.1,16.25-13.65,23.66s-8.71,13.13-12.35,16.9a.78.78,0,0,1-.13-.52.78.78,0,0,0-.13-.52,39,39,0,0,1-.39-5.59,57.46,57.46,0,0,1,1.56-13.13A204.48,204.48,0,0,1,822,289.56c.91-2.47,1.69-4.94,2.6-7.41l1.3-3.9a114.48,114.48,0,0,0,4.42-14.82,29.87,29.87,0,0,0,.65-5.85,14.8,14.8,0,0,0-2.6-8.06,6,6,0,0,0-4.81-2.86h-1.17a12.81,12.81,0,0,0-4.94.91,30.07,30.07,0,0,0-4.55,2.34,115.56,115.56,0,0,0-25.74,22.75c-1.82,1.95-3.51,3.9-5.21,6l-1.81,2.08v-.13h-.27c.14-.65.4-1.17.53-1.69.78-2.47,1.42-5.07,2.08-7.54.25-.91.52-1.69.65-2.47.52-1.69,1-3.51,1.43-5.2a24.35,24.35,0,0,0,.65-5.2,16.32,16.32,0,0,0-1.18-6,4.79,4.79,0,0,0-2.34-2.47,7.73,7.73,0,0,0-3.5-.78,11.19,11.19,0,0,0-4.69.91,7.88,7.88,0,0,0-3.38,2.47q-4.85,7.33-9.5,21.08c-12,12.41-23.71,25.19-35.08,38.2a3.45,3.45,0,0,1-.65.78,11.21,11.21,0,0,1,1-4.68c.13-.52.26-1,.39-1.43,1.56-6.37,3.12-12.74,4.81-19.11l4.68-19.11c.26-.91.52-1.95.91-3.12.52-1.82,1-3.77,1.56-6a24.38,24.38,0,0,0,.78-6,14.65,14.65,0,0,0-.65-4.16,5.21,5.21,0,0,0-2.47-3,7.85,7.85,0,0,0-3.9-.91,22.52,22.52,0,0,0-9.36,2.34,51.78,51.78,0,0,0-8.32,5.07,2.67,2.67,0,0,1-1.17.65c-.52,0-.78-.52-.91-1.43a5.28,5.28,0,0,0-2.86-4.42,9.06,9.06,0,0,0-4.94-1.3h-.39c-7,0-13.65,2.47-20,7.41a76.51,76.51,0,0,0-16.9,18.85,107.4,107.4,0,0,0-11.71,23.53q-1.47,4.24-2.43,8.14c-3,4.57-5.82,8.43-8.35,11.62-4,5.07-7.15,7.67-9.23,7.67a1.88,1.88,0,0,1-.91-.26c-.91-.52-1.43-2.21-1.43-5.07a80.87,80.87,0,0,1,1.43-12.48,292.8,292.8,0,0,1,10.92-39.26,10.19,10.19,0,0,0,.65-1.82,21.85,21.85,0,0,0,1.69-5.33,22.56,22.56,0,0,0,.13-2.34,10.88,10.88,0,0,0-2-6,7.9,7.9,0,0,0-2.08-2.08,6.39,6.39,0,0,0-2.6-.65h-.39A16.14,16.14,0,0,0,629.49,255c-3,4-6.24,10.53-10,19.5A158.74,158.74,0,0,0,611,300.87c-1.95,8.71-3,15.86-3,21.71a66.17,66.17,0,0,0,.65,9c1.3,8.19,5.59,13.52,12.74,16a18,18,0,0,0,5.2.78c5.33,0,10.53-2.47,15.6-7.28a101.65,101.65,0,0,0,10.18-14.22,44.74,44.74,0,0,0,1.38,4.47,37,37,0,0,0,6.5,11.83c2.74,3.38,5.73,5.07,9.11,5.07a11.39,11.39,0,0,0,6.5-2.34,26,26,0,0,0,6.63-7.54,176.56,176.56,0,0,0,9.75-16.77c1.82-3.38,3.64-6.76,5.59-10,2.86-4.94,5.59-9.88,8.19-14.95a25.78,25.78,0,0,0,1.43-2.6c.13.13.13.13.26.13H708c-.52,1.69-1.43,4.94-2.6,9.75-1.69,5.85-3.51,12.61-5.59,20.15s-3.9,14.17-5.59,20-2.73,9.23-3.25,10c-4.29,5.33-8.45,10.79-12.22,16.38-4.81,7-9.36,14.17-13.79,21.32a175.45,175.45,0,0,0-11.7,22.49,36.89,36.89,0,0,0-3.12,14.7,19.93,19.93,0,0,0,3.77,12q3.71,5.07,12.87,5.46h.4a14.06,14.06,0,0,0,7-1.69,24.76,24.76,0,0,0,5.85-4,61.36,61.36,0,0,0,12.61-16.25,119,119,0,0,0,12.87-34.72l2.86-12c.91-3.9,2-7.8,2.86-11.83s2.08-8.32,3-12.48c.52-2.6,1-5.2,1.69-7.67a12.9,12.9,0,0,1,2.08-4.94c6.89-9.1,13.39-18.2,19.76-27.3,5.84-8.55,12-17.16,18.68-25.82-4,14.81-6.08,28.07-6.08,39.73a42.67,42.67,0,0,0,2,13.91q2.53,6.63,6.63,6.63a7.17,7.17,0,0,0,4.81-2.47,30.37,30.37,0,0,0,5.46-7.8c1.31-3,2.6-6,3.77-9,2.73-6.89,5.86-13.52,9.24-20.15a192.18,192.18,0,0,1,21.19-30.68,13.91,13.91,0,0,1,2.08-1.82,6.51,6.51,0,0,1,1-.91v.26a1.73,1.73,0,0,1-.39,1l-.13.26-1.17,3.12a213.11,213.11,0,0,0-8.45,23.66,67,67,0,0,0-2.08,13.26c-.13,1.43-.13,2.86-.13,4.29,0,7.67,1.69,14.17,5.07,19.37s7.41,7.93,12.09,7.93a14.27,14.27,0,0,0,7.67-2.6,27.47,27.47,0,0,0,7.67-8.45c2.86-5.07,5.59-10.14,8.32-15.34l2-3.9c3.25-6.24,6.63-13.39,10.14-21.32s6.63-15.34,9.62-22.23c.39-1.17.91-2.21,1.3-3.25a4.49,4.49,0,0,0,.39-1.69A1.79,1.79,0,0,0,857.25,267.85ZM684.74,294.37c-3.77,6.37-7.54,12.61-11.57,18.85a107.92,107.92,0,0,1,10.92-27.69,62.87,62.87,0,0,1,20.41-21.45A268.79,268.79,0,0,0,684.74,294.37Zm-6,111a104.63,104.63,0,0,1-7.15,14.95,38.94,38.94,0,0,1-9,10.67v-1.3A23.38,23.38,0,0,1,665,419.56a195.21,195.21,0,0,1,19.51-34.32c.13-.13.13-.26.26-.39a2.93,2.93,0,0,0,.65-.65C683.44,391.61,681.23,398.63,678.76,405.39Z" />
    <path fill="#fff"
        d="M927.64,285.42c12.07,0,24.13.06,36.2,0,4.35,0,7.52,1.35,9,5.75.16.5,1.11.95,1.75,1a23.4,23.4,0,0,1,9.44,3.24,16.31,16.31,0,0,1,5.57,22.21,25,25,0,0,1-25.21,12.3,3.05,3.05,0,0,0-3.35,1.45c-3.77,5-7.68,9.85-11.53,14.77a3.83,3.83,0,0,1-3.35,1.48c-12.19-.05-24.39,0-36.58-.1a8.67,8.67,0,0,1-4.25-1.46c-7.73-4.84-12.69-12-16.22-20.21a86.09,86.09,0,0,1-6.81-31.4c-.21-5.81,3-9,8.78-9Zm-24,7.93c-3.37,0-6.45.06-9.52,0-1.37,0-1.77.44-1.74,1.79a80.92,80.92,0,0,0,3.81,24.18c2.77,8.33,7,15.63,14.66,20.52.38.24.81.42,1.3.67a2.57,2.57,0,0,0-.06-.61c-.42-.94-.87-1.87-1.3-2.81-4-8.58-7.29-17.36-8.49-26.81C901.57,304.64,901.61,299.09,903.62,293.35Zm62.61,29.15c5.65.7,10.11-.87,13.77-4.74,3-3.22,4.2-7,2.66-11.21s-5.15-6.17-9.68-6.93A56.71,56.71,0,0,1,966.23,322.5Z" />
    <path fill="#fff"
        d="M926,350.46h52.27c2.78,0,3,.32,2.13,3.05a6.12,6.12,0,0,1-5.92,4.71c-1.1.08-2.2,0-3.29,0q-45,0-90,0a22.4,22.4,0,0,1-6.27-.82A5.48,5.48,0,0,1,871,351.8a1.45,1.45,0,0,1,.72-1.14,3.71,3.71,0,0,1,1.77-.2Z" />
    <path fill="#fff"
        d="M935.32,279.87a18.37,18.37,0,0,0,1.06-1.74,63.11,63.11,0,0,0,3.48-7.53,11.48,11.48,0,0,0-3.37-12.86,22.48,22.48,0,0,0-2.85-2.31c-6.18-4-6-10.12-5-16.25,1-5.83,5.45-9.78,11.29-10.8.1,0,.23.07.56.18-.5.66-.94,1.26-1.41,1.84a10.79,10.79,0,0,0-1.31,12.49c1.23,2.4,2.8,4.63,4.24,6.92s3,4.51,4.32,6.88a12.73,12.73,0,0,1-.29,13.27C944,273.53,939.32,278.07,935.32,279.87Z" />
    <path fill="#fff"
        d="M922.06,238.1l-1.43,2c-2.33,3.25-2.7,6.68-.65,10.15,1.73,3,3.63,5.79,5.5,8.65,3.94,6.06,3.69,10.75-1.17,16.12-1.86,2.06-4.09,3.8-6.14,5.68l-.45-.41a34.36,34.36,0,0,0,2-3.42,35.53,35.53,0,0,0,2.09-5.59c.87-3.5-.28-6.48-2.88-8.92a13,13,0,0,0-2.24-1.83c-4.57-2.7-5-7.09-4.63-11.66.38-4.75,2.72-8.27,7.3-10C920,238.55,920.77,238.43,922.06,238.1Z" />
    <path fill="#fff" d="M930.68,308.91a1.5,1.5,0,0,0,0-3,1.5,1.5,0,0,0,0,3Z" />
    <path fill="#fff"
        d="M646.32,398.78A1.28,1.28,0,0,0,645.1,397,600.59,600.59,0,0,1,568.28,395c-27.64-2.41-59.56-10.74-84.65-23.7C475,366.87,468,360.4,460,354.1a4.69,4.69,0,0,0-6.45.54c-1.56,1.81-1.85,4.38,1.66,8.22a140.3,140.3,0,0,0,35.65,27.28c35,18.06,73.44,22.69,112.13,23.14,11.84.13,23.82,0,35.89-.37a2.38,2.38,0,0,0,2.14-1.52C642.84,406.74,644.64,402.51,646.32,398.78Z" />
    <path fill="#fff"
        d="M911.66,402a67.67,67.67,0,0,0-32.56-16.14c-28.26-5.79-88.75-3-128.28,2.87h-.14c-11.29.83-22,1.77-32.39,2.71a2,2,0,0,0-1.74,1.4c-1.48,4.64-3.27,9.6-5,14.26a1.74,1.74,0,0,0,1.71,2.35C743.16,407.88,773,406.52,802,407c26.1.4,49.54-.51,73.38,8.82,8.72,3.42,26.52,14.2,30.17,30.24a5.94,5.94,0,0,0,10.59,2.12C927.11,433.25,920.5,410,911.66,402Z" />
    <path fill="#fff"
        d="M227.88,320.62h81.39a2.24,2.24,0,0,1,2.24,2.18c0,.15,0,.29,0,.44,0,12.81,0,40.45,0,53.26a20.09,20.09,0,0,1-20.07,20.09q-24,0-48,0c-10.43,0-17.71-7.12-17.78-17.51-.08-13.82,0-42.45,0-56.27h0A2.18,2.18,0,0,1,227.88,320.62Z" />
    <path fill="#fff"
        d="M278.66,289.91a1.63,1.63,0,0,1-1.63,1.63c-2.34,0-4.57,0-6.8,0-1.16,0-2.64,0-2.38,1.56.1.64,1.57,1.45,2.47,1.52,2.2.16,4.42.11,6.7.08a1.63,1.63,0,0,1,1.65,1.63v6.9a1.62,1.62,0,0,1-1.62,1.63h-5.52a6,6,0,0,0-2.17.09l-.1,0a1.61,1.61,0,0,0-.16,2.77.75.75,0,0,0,.41.14c2.47.13,4.94.1,7.5.08a1.63,1.63,0,0,1,1.63,1.63v3.16a1.63,1.63,0,0,1-1.63,1.62H254.44a1.63,1.63,0,0,1-1.63-1.62V236.53a1.63,1.63,0,0,1,1.63-1.63H277a1.62,1.62,0,0,1,1.62,1.63v26.53a1.62,1.62,0,0,1-1.64,1.63c-2.2,0-4.4-.07-6.58.08-.93.06-2.5.77-2.59,1.36-.23,1.67,1.28,1.72,2.54,1.72H277a1.64,1.64,0,0,1,1.64,1.63v6.9A1.63,1.63,0,0,1,277,278h-6.5c-1.23,0-2.75-.08-2.72,1.63s1.6,1.5,2.78,1.51c2.14,0,4.28,0,6.49,0a1.63,1.63,0,0,1,1.63,1.63ZM261.23,249a4.7,4.7,0,0,0,4.66,4.64,4.94,4.94,0,0,0,4.77-4.88,4.79,4.79,0,0,0-4.76-4.58A4.57,4.57,0,0,0,261.23,249Z" />
    <path fill="#fff"
        d="M225.86,274.53l9.67,12.56a1.55,1.55,0,0,1-.48,2.3c-1.79,1-3.43,1.87-5,2.92a1.73,1.73,0,0,0-.28.26,1.54,1.54,0,0,0,1.42,2.5,1.6,1.6,0,0,0,.33-.11c1.79-.82,3.49-1.86,5.35-2.95a1.54,1.54,0,0,1,2.1.53c1.81,2.91,3.59,5.78,5.33,8.67a67.77,67.77,0,0,1,3.81,6.8,28.93,28.93,0,0,1,1.43,4.62,1.55,1.55,0,0,1-1.51,1.94c-4.51,0-8.52-.13-12.52.07-2.7.14-4.32-.64-5.5-3.13-4.7-9.9-9.55-19.71-14.32-29.57a8.67,8.67,0,0,1-.39-1,1.55,1.55,0,0,1,1.3-2,8.51,8.51,0,0,0,6.67-4.24A1.54,1.54,0,0,1,225.86,274.53Z" />
    <path fill="#fff"
        d="M204.43,241.57c1.25,2.12,2.29,3.73,3.19,5.41a13.1,13.1,0,0,0,7.42,6.3c5.88,2.11,8.44,6.83,7.33,13.11a44.26,44.26,0,0,1-1,5c-1,3.25-2.8,4.46-6.15,4.28-7.57-.39-14.7-7.37-14.63-15.31,0-4.69,1.56-9.37,2.48-14C203.34,244.91,203.85,243.55,204.43,241.57Z" />
    <path fill="#fff"
        d="M291.67,311.51l15.05-38.24a2.2,2.2,0,0,1,2.84-1.24l3.12,1.22a2.19,2.19,0,0,1,1.25,2.76c-.18.52-.36,1-.55,1.51-4.51,11.48-9.09,22.93-13.52,34.44-.75,2-1.62,2.93-3.82,2.66a17.32,17.32,0,0,0-2.3-.1A2.2,2.2,0,0,1,291.67,311.51Z" />
    <path fill="#fff"
        d="M301.64,268.92l1.13.44a1.93,1.93,0,0,1,1.09,2.5c-1.43,3.66-2.82,7.22-4.22,10.77q-5.5,14-11,28.07c-1.38,3.51-1.66,4.2-4.38,3.93a1.93,1.93,0,0,1-1.59-2.63l16.52-42A1.92,1.92,0,0,1,301.64,268.92Z" />
    <path fill="#fff"
        d="M303.11,312.19c4.68-11.9,9.26-23.52,13.91-35.35a1.76,1.76,0,0,1,2.3-1l1.44.59a1.76,1.76,0,0,1,1,2.27c-2.31,5.92-4.58,11.72-6.85,17.51-2.05,5.21-4.27,10.36-6.11,15.64-.79,2.29-2,3.06-4.2,2.73h0A1.77,1.77,0,0,1,303.11,312.19Z" />
    <path fill="#fff"
        d="M319.4,272.47l-14.28-5.62a1.52,1.52,0,0,1-.39-2.59c1-.79,1.85-1.51,2.8-2.16a2.47,2.47,0,0,1,1.93,0c3.11,1.18,6.14,2.57,9.28,3.65a3.3,3.3,0,0,1,2.54,3.32c0,.58.1,1.16.19,1.8A1.53,1.53,0,0,1,319.4,272.47Z" />
    <path fill="#fff"
        d="M320.84,261.37a1.34,1.34,0,0,1-1.8,1.1h0c-2.11-.84-4.21-1.69-6.52-2.63a1.34,1.34,0,0,1-.51-2.13c2.59-3,5-5.84,7.55-8.63a1.73,1.73,0,0,1,1.68-.27,2.33,2.33,0,0,1,.87,1.76C321.75,254.09,321.3,257.61,320.84,261.37Z" />
</svg>