<svg xmlns="http://www.w3.org/2000/svg" viewBox="0 0 1193 467">
    <path fill="#fff"
        d="M1041.74,32.91H151.26a17,17,0,0,0-17,17V417.36a17,17,0,0,0,17,17h890.48a17,17,0,0,0,17-17V49.91A17,17,0,0,0,1041.74,32.91ZM225.59,43.24a8.18,8.18,0,1,1-8.18,8.18A8.19,8.19,0,0,1,225.59,43.24Zm-31.44,0A8.18,8.18,0,1,1,186,51.42,8.18,8.18,0,0,1,194.15,43.24Zm-31.45,0a8.18,8.18,0,1,1-8.18,8.18A8.18,8.18,0,0,1,162.7,43.24Zm886,374.12a7,7,0,0,1-7,7H151.26a7,7,0,0,1-7-7V75.91a7,7,0,0,1,7-7h890.48a7,7,0,0,1,7,7Z" />
    <rect fill="#fff" x="889.14" y="90.31" width="134.9" height="27.31" rx="13.66" />
    <circle fill="#fff" cx="181.35" cy="103.97" r="20" />
    <rect fill="#fff" x="222.77" y="99.14" width="58.58" height="9.66" rx="4.83" />
    <rect fill="#fff" x="301.66" y="99.14" width="58.58" height="9.66" rx="4.83" />
    <rect fill="#fff" x="380.56" y="99.14" width="58.58" height="9.66" rx="4.83" />
    <path fill="#fff"
        d="M342.16,367.9h223a13,13,0,0,1,13,13v43.36a0,0,0,0,1,0,0H329.12a0,0,0,0,1,0,0V380.93A13,13,0,0,1,342.16,367.9Z" />
    <rect fill="#fff" x="614.78" y="367.9" width="141.81" height="16" rx="8" />
    <rect fill="#fff" x="614.78" y="393.52" width="249.1" height="8" rx="4" />
    <rect fill="#fff" x="614.78" y="409.21" width="249.1" height="8" rx="4" />
    <path fill="#fff"
        d="M333.5,301.07H314.83l-27.16-27.16L260.5,301.07H241.83V177.74h25v81.33l8.34-8.33v-23h25v23l8.33,8.33V177.74h25Z" />
    <path fill="#fff"
        d="M437.67,301.07H383.5a36.17,36.17,0,0,1-26.58-10.91Q346,279.24,346,264.41V247.74q0-14.84,10.92-25.75a36.14,36.14,0,0,1,26.58-10.92h16.67A36.18,36.18,0,0,1,426.75,222q10.92,10.92,10.92,25.75v20H371c0,1.56,1.28,3.61,3.83,6.17a12,12,0,0,0,8.67,3.83h54.17Zm-25-56.66c0-1.56-1.28-3.61-3.84-6.17a11.92,11.92,0,0,0-8.66-3.83H383.5a12,12,0,0,0-8.67,3.83c-2.55,2.56-3.83,4.61-3.83,6.17Z" />
    <path fill="#fff"
        d="M537.67,264.41q0,14.83-10.92,25.75a36.21,36.21,0,0,1-26.58,10.91H446V177.74h25v33.33h29.17A36.18,36.18,0,0,1,526.75,222q10.92,10.92,10.92,25.75Zm-25,0V247.74a12.89,12.89,0,0,0-3.84-9.5,11.92,11.92,0,0,0-8.66-3.83H471v43.33h29.17a12,12,0,0,0,8.66-3.83A12.91,12.91,0,0,0,512.67,264.41Z" />
    <path fill="#fff"
        d="M737.67,264.41q0,14.83-10.92,25.75a36.21,36.21,0,0,1-26.58,10.91H646V177.74h54.17a36.18,36.18,0,0,1,26.58,10.92q10.92,10.91,10.92,25.75Zm-25,0v-50a12.88,12.88,0,0,0-3.84-9.5,11.93,11.93,0,0,0-8.66-3.84H671v76.67h29.17a12,12,0,0,0,8.66-3.83A12.91,12.91,0,0,0,712.67,264.41Z" />
    <path fill="#fff"
        d="M841.83,301.07H787.67a36.21,36.21,0,0,1-26.59-10.91q-10.92-10.92-10.91-25.75V247.74q0-14.84,10.91-25.75a36.18,36.18,0,0,1,26.59-10.92h16.66A36.18,36.18,0,0,1,830.92,222q10.91,10.92,10.91,25.75v20H775.17c0,1.56,1.27,3.61,3.83,6.17a12,12,0,0,0,8.67,3.83h54.16Zm-25-56.66c0-1.56-1.28-3.61-3.83-6.17a12,12,0,0,0-8.67-3.83H787.67a11.92,11.92,0,0,0-8.67,3.83c-2.56,2.56-3.83,4.61-3.83,6.17Z" />
    <path fill="#fff"
        d="M941.83,231.74l-34.66,69.33H884.83l-34.66-69.33V211.07h25v15.17L896,267.91l20.83-41.67V211.07h25Z" />
    <circle fill="#fff" cx="952.59" cy="291.41" r="9.93" />
</svg>