<svg xmlns="http://www.w3.org/2000/svg" viewBox="0 0 600 600">
    <path fill="currentColor"
        d="M220,508.09a84.12,84.12,0,0,1-3.42-24.16c0-20.7,6.9-43,21.24-60.37s35.89-29.24,60.16-29.24a80.93,80.93,0,0,1,30.41,6.1c23.75,9.57,34.11,30.87,34.14,51.11,0,11.71-3.52,23-9.89,31.32a33.92,33.92,0,0,1-18.16,12.45c-7.58,1.65-17.34,1.16-27.81-6-23.37-16-12.48-46.46-1.59-47.42,0,0-25.3-.64-26.58,26.92-1.18,25.35,41.28,46.37,65.53,25.61a38.53,38.53,0,0,0,10.89-9.79c6.83-8.9,10.49-20.78,10.49-33.07,0-21.18-11-43.75-35.94-53.78a83.74,83.74,0,0,0-31.49-6.31c-25.23,0-47.47,12.22-62.38,30.27s-21.89,40.89-21.9,62.22a87.07,87.07,0,0,0,3.54,25c7.19,23.85,21.42,37.8,36.27,45.65s30.32,9.72,40.28,9.73a45,45,0,0,0,10.06-.89s-26.74-.17-49-11.39C240.38,544.75,227,531.22,220,508.09Z" />
    <polygon fill="currentColor" points="231.32 418.96 231.32 418.97 231.33 418.95 231.32 418.96" />
    <path fill="currentColor"
        d="M340.15,215.37A193.93,193.93,0,0,0,329.77,153C311.31,98.16,269.86,78.23,233,78.28c-19.57,0-37.9,5.53-51.05,14.38-28.17,18.94-42.34,45.77-42.32,76.42a110.3,110.3,0,0,0,2,20.55c3.24,17,11.12,29.72,21.29,38.53,10.17,9.83,25.68,18.81,48.65,19.51,52.19,1.6,68.2-45.5,57-65s-29.14-19.24-29.14-19.24,18.26,11.86,9,44.23c-5.36,18.67-29.1,34.3-53.78,32.39-22.5-4.07-44.2-19.81-50.15-50.92a107.14,107.14,0,0,1-2-20c0-29.75,13.57-55.5,41.05-74,12.58-8.48,30.41-13.89,49.44-13.88,35.9,0,75.91,19,94.07,72.76a190.81,190.81,0,0,1,10.22,61.44c0,58.2-26.88,108.55-53.84,144.36C270,377.54,231.66,418.59,231.33,419,231.72,418.58,340.06,333.43,340.15,215.37Z" />
    <path fill="currentColor"
        d="M493.63,299.6a73.87,73.87,0,0,0-18.11-48.31c-11.78-13.36-29.1-22.42-50.85-22.4-.83,0-1.66,0-2.49,0-35.17,1.09-58,15.56-71.9,29.76s-19,28.1-19.06,28.22a112.88,112.88,0,0,1,22-27.91c13.5-12.25,34.89-25.95,69-27.19.82,0,1.62,0,2.41,0,20.95,0,37.39,8.64,48.69,21.44a70.84,70.84,0,0,1,17.38,46.39c-.08,26.85-15.68,52.51-51.16,58.41-9,.37-21.23-1.76-31-13.25-17.53-20.66-4.17-50.83,19.69-51.91,21.37-1,25,17.55,23.78,24,0,0,10.57-5.49,4.32-23.31-5.56-15.85-46.83-31.24-67.24,2.64-19.51,32.39,13,81,60.12,62.59C479.66,350,493.7,325.13,493.63,299.6Z" />
    <path fill="currentColor"
        d="M292.62,543.28a13.1,13.1,0,0,1-2.88-11.3,9.68,9.68,0,0,0-9.36,8.18,14.15,14.15,0,0,0,1.68,9.13s-6.25-1-6-9.61,6.73-11.53,6.73-11.53-12.49-5.78-17.06,7.44,12.26,21.87,27.15,20.19,13.21-12.26,13.21-12.26S297.19,548.81,292.62,543.28Z" />
    <path fill="currentColor"
        d="M311.12,555.3s-1.69,1.44-2.16,8.65c0,0-.49,14.67,11,17.06s15.37-5,15.37-5S317.12,579.33,311.12,555.3Z" />
    <path fill="currentColor"
        d="M300.62,569.59s-4.47.11-8.33.1a39.58,39.58,0,0,0-25.14,8.6c1.75-5.29,14-9.2,14-9.2a85.66,85.66,0,0,1-17.51-4.21c-19.46-7-25.42-16.18-37.18-6,0,0,7.78-.77,10.89,6s5.94,15.35,15.34,11.39c11.59-4.88,16.27-3.47,16.27-3.47s-11.61,4.36-10.45,16.09,17.94,13.51,20.12,8.54c0,0-4.63-1.38-2.46-8.79s12.46-10.08,12.46-10.08S286.26,585.66,292,590s11-1.29,11-1.29S293.26,590,300.62,569.59Z" />
    <path fill="currentColor"
        d="M157.33,468.11c35.31,4.29,56.09,46.55,56.09,46.55C203,454,143.53,438.43,140.5,453.58,138.15,465.4,152.09,467.46,157.33,468.11Z" />
    <path fill="currentColor"
        d="M209,398.43c-15.31-9-25.67.9-25.67.9s2.17-1,6.53,6.47,10,7.16,20.67,12.81c6.81,3.6,4.5,14.5,4.5,14.5.45-7-5.28-13.21-9.68-14.33-9.32-2.37-13.29,1.46-13.29,1.46,6.07,1.48,4.78,7.83,12.23,17s6.78,26.94,6.78,26.94C227.61,420.89,224.36,407.44,209,398.43Z" />
    <path fill="currentColor"
        d="M230.67,370.73c-10.18-6.53-28.57-.73-25.22,12s12.49,10.8,12.49,10.8c-3.84-15.62,12.73-16.58,15.61-7.69s-6.48,22.83-6.48,22.83C242.19,391.15,240,376.73,230.67,370.73Z" />
    <path fill="currentColor"
        d="M246,355.58c-7.44-2.16-10.57,3.37-10.57,3.37,5-1,5.52,8.41,7.44,17.06a27.51,27.51,0,0,1-.72,15.14C257.8,375.05,253.49,357.75,246,355.58Z" />
    <path fill="currentColor"
        d="M223.47,326c31.45-9.13,32.41,35.57,32.41,35.57s10.57-26-4.08-44.94-35.3-14.43-37.94-5.29a11.68,11.68,0,0,0,4.56,13.46s-1.73-6.9,8.89-10.09c9.6-2.89,18.73,5.77,18.73,5.77C230.91,312.33,223.47,326,223.47,326Z" />
    <path fill="currentColor"
        d="M208.33,344.52c12,1.45,13.21-11.29,13.21-11.29a9.61,9.61,0,0,1-12-1c-9.35-7.93-1.69-25.49-1.69-25.49C187.21,326,196.33,343.08,208.33,344.52Z" />
    <path fill="currentColor"
        d="M267.07,340.93c0-13.23-3.94-26.58-15.58-35.75a44.44,44.44,0,0,0-27.6-9.87,40.82,40.82,0,0,0-27.44,10.42,36.11,36.11,0,0,0-11.92,27,44.22,44.22,0,0,0,2.06,13,29.23,29.23,0,0,0,1.93,5.22c.08.2.16.4.25.6l0,0c8.71,16.78,32,17.49,41.37,7.14,11.29-12.5.72-28.6.72-28.6,1.92,15.62-15.37,27.64-32.9,18.74-11.25-5.7-10.92-17.74-9.26-25.64a33.36,33.36,0,0,1,9.64-15.35,37.94,37.94,0,0,1,25.5-9.66,41.47,41.47,0,0,1,25.82,9.24c10.76,8.49,14.85,20.79,14.48,33.49-.85,28.82-12.55,48.57-12.55,48.57,2.79-3,6.52-9.69,9.72-18.44A90.6,90.6,0,0,0,267.07,340.93Z" />
    <path fill="currentColor"
        d="M309.68,299.34c1.54-23.51-17.3-26.67-17.3-26.67,8.17,4.56,5.77,17.06,5.77,17.06C293.35,277,280.62,283,280.62,283c6.72,2.16,9.85,9.85,9.85,9.85-12.25-10.33-24.26,8.42-24.26,8.42,17.29,1.44,14.41,13,14.41,13-5.77-5.76-14.41.49-14.41.49,9.12,1.68,14.17,18.26,14.17,18.26-3.85-8.17-11.53-6-11.53-6,12.25,13,1,35.57,1,35.57,7.93-8.17,9.61-20.91,9.61-20.91a17.81,17.81,0,0,1-1.44,11.3c13-13.46,21.37-37.5,21.37-37.5-.24,7.7-7.93,21.15-7.93,21.15S308.71,314,309.68,299.34Z" />
    <path fill="currentColor"
        d="M238.6,268.34c-3.85-2.4-4.57-4.57-3.61-7.92,0,0-13.21,2.64-5.28,20.9,0,0-8.17-4.33-8.17-13.46,0,0-10.56,3.61-2.4,18.27,0,0-6.48,1.44-9.6-4.09,0,0-2.65,11,7.68,10.58s16.81-.73,21.38,1.2c0,0-3.36-4.33-6.25-5.29,0,0,1.8-.66,8.4,3.84,5.29,3.61,14.41,11.78,14.41,11.78s-3.36-7.21-4.08-12.26c0,0,7,14.9,11.53,20.91l-2.16-7.21s-2.65-13,6.48-23.31c0,0-8.89-1.44-10.33,7.69,0,0,1.69-11.77-1.2-15.86s.48-8.89.48-8.89-12.24-2.41-11,14.9C244.84,280.12,242.43,270.74,238.6,268.34Z" />
    <path fill="currentColor"
        d="M244.6,523.68s-1.27-11.35,4-17.65c0,0-11.18-3.28-13.55,9.14,0,0-1.53-10.89.85-16.81,0,0-10,3.5-5.3,20.5s30.86,30.67,30.86,30.67-12.12-17.26,6.56-35.59C268,513.94,251,500.58,244.6,523.68Z" />
    <path fill="currentColor"
        d="M240,482s-4.79-7-12.48-.73c0,0,1.44-12.73,13.44-13.93,0,0-4.32-6.26-11.28-2.17,0,0,6.25-11.29,19.45-7.45a11.11,11.11,0,0,0-10.33-9.86c-9.6-1-17.53,13.22-17.53,31,0,0,1.92-7.21,5.53-8.17,0,0-9.61,8.41-.72,37.26C226.11,508,225.14,487.29,240,482Z" />
    <path fill="currentColor"
        d="M232.51,441.14s19.69-5.05,26.65,13.94c0,0,7.93-13.7-6.47-20.19,0,0,13.92,2.64,13.2,16.35,0,0,10.33-9.62,6.24-19.95s-17.52-14.42-27.61-4.57S232.51,441.14,232.51,441.14Z" />
    <path fill="currentColor"
        d="M254.92,415.83s30.16,0,27.69,27.15c0,0,11-5.49,7.95-17.55S267.81,407.59,254.92,415.83Z" />
    <path fill="currentColor"
        d="M273.19,406.75s30.18,5.29,21.22,25.33c0,0,12.75-1.48,11.73-13S288.66,400.5,273.19,406.75Z" />
    <path fill="currentColor"
        d="M299.78,403.29s18.23,12.18,9.91,26.18c0,0,9.33-3.61,8.32-14,0,0,8,3,5.91,11.67,0,0,8.2-8.67,2.28-15.71s-19.87-8.06-19.87-8.06,8,3,8.16,9.84C314.49,413.21,310.16,403.75,299.78,403.29Z" />
    <path fill="currentColor"
        d="M342.49,424.56c0-7.69-11.28-14.66-11.28-14.66s8.89,12.26,2.4,22.83C333.61,432.73,342.49,432.25,342.49,424.56Z" />
    <path fill="currentColor"
        d="M321,448.91s-17.93.32-15.37,19.55c3.07,23,42.17,25.89,49.63-7.69,5.13-23.07-8.32-36.86-8.32-36.86s11.66,19.6-5.13,34.3C329,469.42,315,457.89,321,448.91Z" />
    <path fill="currentColor"
        d="M272.05,509.15c14.73,12.19,41-2.88,41-2.88s-29.38,1.2-41.63-25C271.41,481.27,257.32,497,272.05,509.15Z" />
    <path fill="currentColor" d="M323,508.19s-16.33-.64-24.65,12.82,3.2,20.19,8.32,10.57S311.44,515.88,323,508.19Z" />
    <path fill="currentColor"
        d="M330.33,551.13c-7.69-5.13-10.57-24,2.88-43.58,0,0-13.77,8-17.61,24.68s4.54,38.76,17.61,37.17C343.78,568.12,338,556.26,330.33,551.13Z" />
    <path fill="currentColor"
        d="M362.66,543.76s-7.68-.64-10.56-3.2-6.4-4.48-11.21-2.89-10.56-5.76-10.56-12.17c0,0-4.81,18.9,8.64,24S362.66,543.76,362.66,543.76Z" />
    <path fill="currentColor"
        d="M342.49,530s12.17,11.86,27.22,3.53,17-28.2,11.85-39.42c0,0,9.6,9.94,3.2,31.09,0,0,14.41-11.22,10.25-29.8s-24-35.58-24-35.58a61.79,61.79,0,0,1-.57,11.87s-2.39,14.89-2.15,16.82c1.23,9.88-2.4,14.9-2.4,14.9a29.55,29.55,0,0,0,.35-15.83c-4.81,11.74-14.33,23.92-33,29.28,0,0,12.17,12.18,27.22.32C360.43,517.16,357.54,531,342.49,530Z" />
    <path fill="currentColor"
        d="M431.18,493.13c.33-5.76-7.68-15.38-22.09-18.26s-35.86-25-35.86-25,17.93,31.07,33.3,42.29S430.86,498.9,431.18,493.13Z" />
    <path fill="currentColor"
        d="M402.85,467.1c13.69,6,23.77,4.56,24-.24s-5.28-9.62-12.73-9.86-29.53-4.08-40.58-13.22C373.55,443.78,389.16,461.08,402.85,467.1Z" />
    <path fill="currentColor"
        d="M401.17,439.7c-7.21-1.44-22.1.23-32.9-6.25,0,0,11.28,14.66,25.69,15.62S408.37,441.14,401.17,439.7Z" />
    <path fill="currentColor"
        d="M380,432c19.7,3.61,32.66-17.31,17.3-24.52,0,0,1.44,6.74-8.65,8.9s-23.05,1.92-31.7-6.49C357,409.9,360.34,428.4,380,432Z" />
    <path fill="currentColor"
        d="M347.14,397.64c10.08,6.25,31.69,15.14,40.34-5.05,0,0-4.8,3.61-11.53-.24s-32.17-16.34-44.66-.48C331.29,391.87,337.05,391.39,347.14,397.64Z" />
    <path fill="currentColor"
        d="M331.29,377.69s8.4-14.66-10.09-21.87c0,0,10.81-1.2,14.41,8.89,0,0,4.08-17.54-17.29-18.5,0,0,5.76-6.73,15.37-1,0,0-4.08-12.26-15.13-10.82s-18.49,15.86-27.86,28.12c0,0,8.65-7.93,12-8.65a135.32,135.32,0,0,0-17,16.58l7.93-4.81S275.33,381.06,266,392.59c0,0,27.62-19.94,58.36-3.12,0,0,6-16.82-15.13-21.15C309.2,368.32,323.6,362.8,331.29,377.69Z" />
    <path fill="currentColor"
        d="M335.37,332.51c8.64,7.21,3.6,27.4,10.8,29.8s13.21-10.57,5.53-22.83S327,322.17,315,330.83C315,330.83,326.73,325.3,335.37,332.51Z" />
    <path fill="currentColor"
        d="M343.29,325.78c10.81,7.45,13.69,15.62,19.21,11.3,2.48-1.94,1.71-8.6-4.56-13.7-7.7-6.28-22.54-10.15-35.78.72A20.79,20.79,0,0,1,343.29,325.78Z" />
    <path fill="currentColor"
        d="M343.29,312.57c11.53-.48,14.17-5.54,12-9.14S339,299.11,325,318.33C325,318.33,331.77,313,343.29,312.57Z" />
    <path fill="currentColor"
        d="M331.05,306.31s12.73-13.46,24.25-9.84,11.77,18.5,1.92,19.21c0,0,15.61,7.46,20.41-7s-9.12-25.24-20.88-22.83S335.61,297.91,331.05,306.31Z" />
    <path fill="currentColor"
        d="M348.05,280.75s25.14-12.26,31.12,9.58c0,0,15.89-10.72-1.14-22.24,0,0,11.29.29,12.32,10,0,0,6.6-8.46.48-14.18s-20.61-12-36.57,6.91c0,0,8.33-5.69,11.95-5.93C366.21,264.88,353.25,275.08,348.05,280.75Z" />
    <path fill="currentColor"
        d="M376.75,253.12s18.89-1.6,22.1,14.42c0,0,.88,6.8,5.68,6.33s8.64-7,1.2-16.11S381.88,250.4,376.75,253.12Z" />
    <path fill="currentColor"
        d="M389.4,247.44s18.73-2.89,25.21,11.29,11.29,13.7,14.17,10.57-.24-15.62-15.37-21.39S389.4,247.44,389.4,247.44Z" />
    <path fill="currentColor"
        d="M407.65,242.87s25.46-1.45,38.19,16.82,17.76,18.51,21.85,13.94S447.27,230.37,407.65,242.87Z" />
    <path fill="currentColor"
        d="M429.26,253.44s3.85,4.08,4.57,11.78,7.2,11.53,10.32,8.65S442.23,260.17,429.26,253.44Z" />
    <path fill="currentColor"
        d="M461.44,299.11s5.77,12,16.09,4.32,4.56-28.12-5.52-37.73C472,265.7,482.09,292.37,461.44,299.11Z" />
    <path fill="currentColor"
        d="M482.81,307.32s-7.66,8.42-20.16,4.08c0,0-.58,7.93,7.07,8.71,0,0-9,5.34-18.24.46,0,0-3.27,6.35,3.32,9.66,0,0-5.32-1.92-8.23-.13s-6.42-4.5-6.42-4.5-6,6.95,1.58,13.55,24.61,2.57,32.73-9.2c0,0-5.33,3.65-10.6,3.19C463.86,333.14,478.68,331,482.81,307.32Z" />
    <path fill="currentColor"
        d="M443.67,319.53a10.74,10.74,0,0,0-5.52-11c-7-4.09-28.73-.31-25.94,21.63,3.13,24.51,32.9,21.87,36.26,20.43,0,0-17.29-1.45-18.49-14S438.87,317.13,443.67,319.53Z" />
    <path fill="currentColor"
        d="M381,331.55c-2.39-6.25-6.72-10.82-10.56-8.41s-.24,12.73,17.53,18.74A29.6,29.6,0,0,1,381,331.55Z" />
    <path fill="currentColor"
        d="M363,346.45a7.32,7.32,0,0,1,4.57,4.8c1.2,3.85,3.84,7.7,11.28,3.37A17.3,17.3,0,0,1,393,352.94S380.28,331.31,363,346.45Z" />
    <path fill="currentColor"
        d="M388.2,363.76c2.88,7,39.38,17.06,60,2.15,0,0-21.37,6-39.62-.47,0,0-8.16-4.09-12.49-7S385.32,356.78,388.2,363.76Z" />
    <path fill="currentColor"
        d="M361.78,378.89c8.17,5.53,38.67,8.66,51.39-2.16a54.38,54.38,0,0,1-24-6.25c-12.25-6.48-24.73-14.41-42.5,4.57C346.66,375.05,353.62,373.37,361.78,378.89Z" />
    <path fill="currentColor"
        d="M464.81,357.75s-6.25,15.86-30.26,21.14-37,1.93-44.19,24.52c0,0,11.29-6.73,27.62-.24S454.48,403.17,464.81,357.75Z" />
    <path fill="currentColor"
        d="M527.12,342.79c-4,1.5-2.67-2.51-12.81-9A45.08,45.08,0,0,1,499.5,318c-2.67,11.67,7.79,20.45,7.79,20.45C497.17,333.67,496.83,323,496.83,323s-5.32,13-8.65,18.67c-2.54,4.31-10.68,14.48-10.68,14.48,1.25-3.79,6-12.15,6-12.15a108.16,108.16,0,0,0-14,16.34c-7.32,10.31-6.24,30.45-6.24,30.45s2.76-2.83,9.92-6.19,7.68-11.62,8.62-15.92a20.8,20.8,0,0,1,3.33-7.41c-5.21,14.08,2.35,22.6,2.35,22.6s-.08-4.53,5.47-7.39,5.46-9.31,4.17-15.16,0-8.59,0-8.59c.11,5.39,7.11,8.63,13.4,8.29S518,352,518,352c-16.25-.12-16-9.94-16-9.94C511,355.77,527.12,342.79,527.12,342.79Z" />
    <path fill="currentColor"
        d="M531.09,318.33c-5.77-4.56-23.54.24-31.23-16.34a28.54,28.54,0,0,0,14.66,22.83C528.92,333,536.84,322.9,531.09,318.33Z" />
    <path fill="currentColor"
        d="M493.86,264c3.36,24,15.13,32,15.13,32-7.21-2.16-11.77-13-11.77-13,3.12,22.59,20.17,27.64,30.5,22.11s4.8-16.82,4.8-16.82c-11.29,9.37-21.61-2.88-21.61-2.88,4.09,4.08,16.57.72,18.73-7S526,265,526,265C510.67,285.16,493.86,264,493.86,264Z" />
    <path fill="currentColor"
        d="M467.93,212.83c-13.21,4.32-26.66,12.57-26.66,12.57,36.82-7.53,44.91-1.76,44.91-1.76-17.53-3.37-40.11,3.53-40.11,3.53,6.25,3.2,11.83,3.71,16.33,4.16,24.5,2.4,28.1,5.77,28.1,5.77-8.65-3.37-28.57-3.85-28.57-3.85a67.69,67.69,0,0,1,24.49,16.59c10.8,11.78,20.41,13.7,20.41,13.7s-5.05-2.89-5.53-10.82c-.38-6.31-3.94-7.9-5.39-8.29a28.25,28.25,0,0,1,20.52,16.47c5.05-18.75-13-26.21-13-26.21a22.69,22.69,0,0,1,15.12,4.81C510,205.37,479.16,209.15,467.93,212.83Z" />
    <path fill="currentColor"
        d="M420,171.4s-1,7.7-24.66,19.56-32,49-32,49a94.2,94.2,0,0,0,35.47-24c-2.89,4.8-9.85,12.25-9.85,12.25,22.57-5.76,34.58-16.57,34.58-16.57-2.88,4.56-10.56,9.61-10.56,9.61,19.93-.24,33.3-9.14,33.3-9.14-4.49,4.17-12.49,7.7-12.49,7.7,52.19-12.5,51.54-31.73,51.54-31.73s-.31,4.17-13.12,0-19.53,4.49-22.1,6.09-7.36,3.84-7.36,3.84c17.29-16.65-1.92-25.31-1.92-25.31s1.6,3.84-4.48,6.73-8.65,8.65-11.53,15.38-13.12,10.26-13.12,10.26C433.75,184.23,420,171.4,420,171.4Z" />
    <path fill="currentColor"
        d="M367.47,188.07c-16.65,35.57-16,58.4-16,58.4s9.28-37.89,38.74-65.45c21.81-20.4,32.66-25.63,28.82-33.65S389.53,140.94,367.47,188.07Z" />
    <path fill="currentColor"
        d="M419.34,120.46c-40.66,3.85-58.91,48.06-63.72,77.22,0,0,16.65-56.39,52.83-63.77,0,0,15.69-3.2,26.26,2.88s23.05,14.43,29.77,6.1S457.64,116.84,419.34,120.46Z" />
    <path fill="currentColor"
        d="M356,177.18s7-44.23,45.46-60.25,49.64-25.51,42.9-36.53C434.71,64.7,361.71,102.83,356,177.18Z" />
    <path fill="currentColor"
        d="M323.6,110.2c2.88,10.9,19.85,34.93,24,73.39,0,0,6-27.88-5.45-67.94C334.49,88.74,320.72,99.31,323.6,110.2Z" />
    <path fill="currentColor"
        d="M341.53,50.28c-9.92,1.29-11.52,23.39-1.91,43.58s14,61.85,14,61.85C372,74,351.46,49,341.53,50.28Z" />
    <path fill="currentColor"
        d="M381.56,36.82c-7.36-.64-14.41,8.34-13.45,34s-6.73,63.44-6.73,63.44C407.17,61.17,388.92,37.46,381.56,36.82Z" />
    <path fill="currentColor"
        d="M412,39.06c-8.32-3.84-14.41,14.42-16.65,27.56S386,96.43,386,96.43C409.09,75.6,420.3,42.91,412,39.06Z" />
    <path fill="currentColor"
        d="M430.23,69.19c9.6,1.28,12.88-4.55,12.16-8.65-.64-3.69-18.57-15.7-36.18,19.54C406.21,80.08,420.62,67.9,430.23,69.19Z" />
    <path fill="currentColor"
        d="M413.17,117.41s20.26-4.64,35.3.16c0,0,12.49,3.53,13.77,0,.4-1.09,1-3.64-2.88-5.44C450.83,108.12,431,105.81,413.17,117.41Z" />
    <path fill="currentColor"
        d="M324.06,80.11c-3.74-2.43-15.51,5.23-8.35,33.28,0,0-2.1-14.86,5.38-20.8S327.8,82.55,324.06,80.11Z" />
    <path fill="currentColor"
        d="M306.62,99.87l.52-1.41S309.73,69,324.36,57.67s13.12-22.32,6.93-25S300.73,38.43,306.62,99.87Z" />
    <path fill="currentColor"
        d="M296.68,81.21S293.3,52.74,311.21,32.6,326.77,4.8,320.62.9c-2.19-1.39-7.72-2-13.67,4.5C296.2,17.11,285.08,44.69,296.68,81.21Z" />
    <path fill="currentColor"
        d="M290.79,25.84c4.73-6.12,5.63-15-.43-16.54S276.3,28.18,284,48.49C284,48.49,286.06,32,290.79,25.84Z" />
    <path fill="currentColor"
        d="M260,71.92c22.46,5.31,31.23,16.35,31.23,16.35-8-17.49-25.89-29.06-38.17-33.1-12.7-4.18-19.7-.46-20.21,2.45C231.78,63.34,237.49,66.62,260,71.92Z" />
    <path fill="currentColor"
        d="M258,43.72C278.14,56,283.86,69.77,283.86,69.77,271.75,9.31,248.22,3.56,241.53,10.24S242,33.94,258,43.72Z" />
    <path fill="currentColor"
        d="M111.65,125.85c1.09,12.15,16,11.68,16,11.68s-7.27,4.34-13.78,1.09c0,0,2.6,9.06,11.91,8s19.08-19.6,19.08-19.6S137.75,134.5,131,132c0,0,11.77.74,18.22-14.17,0,0-13.23,12.68-23.36,6.09-7.31-4.75-4.37-13.11-4.37-13.11S110.57,113.7,111.65,125.85Z" />
    <path fill="currentColor"
        d="M138.84,201.13s.11,9.39-7.36,15-11.56,18.23-8.8,27a67.67,67.67,0,0,1,6.38-7.66s-5.43,13.09.52,22.23c0,0,2.68-9.32,5.29-11.61,0,0-6,13.89,11.17,21.19,0,0-3.16-9.06-.32-13.68s5.33-14.17,1.21-24.4a39.65,39.65,0,0,1-1.68,10.06S147.63,230.83,138.84,201.13Z" />
    <path fill="currentColor"
        d="M168.48,276.52s2.79,1.91,4.48,0-1.61-6.26-5.69-11.06-11.76-13-13.93-32.69C153.34,232.77,149.74,258.73,168.48,276.52Z" />
    <path fill="currentColor"
        d="M179.76,271c20.89,17.31,25.94,5.77,16.33.49S169,259.61,158.55,237.42C158.55,237.42,158.87,253.68,179.76,271Z" />
    <path fill="currentColor"
        d="M200.41,267.38c20.18,7,16.57-6.25,6.24-8.17s-24.49-4.33-39.13-15.86C167.52,243.35,180.24,260.42,200.41,267.38Z" />
    <path fill="currentColor"
        d="M177.6,226.53c33.94,21.14,75.67-11.69,60.83-42.3-10.24-21.15-27.85-12.5-27.85-12.5s13.72,5.05,10.88,19.55c-1.32,6.75-10.58,12-22,12.44,7.18-8.08-2.64-15.65-2.64-15.65-9.61,16.59-24.71,6.61-33.15-1.16a58.45,58.45,0,0,1-9.76-19S143.66,205.38,177.6,226.53Z" />
    <path fill="currentColor"
        d="M160,157.31c9.29,11.86,24.33,3.52,24.33,3.52-11.85-3.2-10.24-17-10.24-17,12.8,13.46,20.17,2.89,20.17,2.89-11.53-6.41-12.17-21.48-12.17-21.48,3.21,8.34,13.13,7.06,13.13,7.06-12.17-20.52-1-35.26-1-35.26-32.66,11.86-27.54,36.85-27.54,36.85-2.24-6.08-.64-14.73-.64-14.73S150.71,145.45,160,157.31Z" />
    <path fill="currentColor"
        d="M266,96.1S249.4,91,228.19,104.75c0,0,15-12.57,33.7-11.85,0,0-3.6-3.2-14.81-5.44,0,0-40.35-5.78-51.23,21.78,0,0,11.2-9.29,17.29-9.29,0,0-23,16-5.45,45.18,0,0-1.28-14.74,4.49-20.5,0,0-2.88,24.67,24.33,34,0,0-16.33-20.19-3.52-34.93S258.29,111.17,266,96.1Z" />
    <path fill="currentColor"
        d="M277.68,132.88s5-18.6,22.3-16.74c0,0-23.13-19.71-46.82,2.07-26.37,24.25,2.22,44.12,6.25,24.28s20.13-26,20.13-26S270.86,123.89,277.68,132.88Z" />
    <path fill="currentColor"
        d="M283.72,129.1s4.1.85,5.12,3,3.3,5.92,10.24,5,9.22,3.34,9.22,3.34-12.79-2.27-14.29,12.44c0,0,20.41-8.77,28.6,8.79a50.85,50.85,0,0,0-1.92-8.36S308.22,112.53,283.72,129.1Z" />
    <path fill="currentColor"
        d="M313.43,160.3c-12.56-5.07-21.66,3.06-22,12.51,0,0,15.16-8,35.31,13.24C326.78,186.05,326,165.37,313.43,160.3Z" />
    <path fill="currentColor"
        d="M306.56,180.86c-15.14-1-19.22,7.45-19.22,7.45,7.45-3.85,12.25.72,14.17,4.81,1.18,2.52,4.38,4.58,6.65,5.79a19.93,19.93,0,0,0-16.74,1.41c-12.67,6.77-10.08,17.79-10.08,17.79,23.54-9.37,30.5,13.94,30.5,13.94s-5.53-9.38-17-9.85-13.45,9.37-13.45,9.37c7-1.44,11.53,2.65,15.13,13.23s2.88,11.76,12,22.1S315,287.09,315,287.09c17.77-39.9,9.12-64.89,9.12-64.89,4.56,7.45,4.32,22.35,4.32,22.35,4.33-26.44-2.64-41.34-2.64-41.34,4.57,4.57,5.77,20.43,5.77,20.43C334.17,198.17,321.68,181.82,306.56,180.86Z" />
    <path fill="currentColor"
        d="M157.63,160.12c-1.77,8,4.75,16.37,8.42,18,12.85,5.54,14-9.33,14-9.33C167.38,174.75,157.63,160.12,157.63,160.12Z" />
    <path fill="currentColor"
        d="M266,230.85C259.24,246.71,240,249.12,240,249.12s1.93.48,12,11.05S273.17,265,273.17,265c-7.2,2.88-15.85-8.66-15.85-8.66C284.7,272.18,290,246.24,290,246.24s-6.72,7.2-14.4,3.84-9.61-2.89-9.61-2.89A13.58,13.58,0,0,0,266,230.85Z" />
    <path fill="currentColor"
        d="M223.07,252.8c-8.47,3.91-19.85,1.28-19.85,1.28s26.2,11.25,33.29,2.56C239.39,253.12,231.39,249,223.07,252.8Z" />
    <path fill="currentColor"
        d="M191.65,460.84c10.88,5,16.82,30.38,19.79,37.32,0,0-3.3-20.15-3.3-33s-8.25-35.32-30.35-32.35c0,0,7.26,2.64,6.27,8.91S180.76,455.89,191.65,460.84Z" />
    <path fill="currentColor"
        d="M173.41,371c10.49,15,24,6,24,6s-15-7-19-26.5c-6.29-30.67,18.23-55,18.23-55-23,7.25-28.72,29.5-28.72,29.5,3.49-22.5,26-32.25,26-32.25-13.24-8.25-27,.75-27,.75,6.24-9.5,24.48-4.5,24.48-4.5-29.73-11.75-43.47,12.5-46,21s-13,8.5-13,8.5c14,16.5,29.48,6,29.48,6-27.48,46.5-1,63,5.5,68s6,14.5,6,14.5c7-6,5-19.5.5-26.5S173.41,371,173.41,371Z" />
    <path fill="currentColor" d="M377.23,566c15.49-8,38.47-39.5,22-74,0,0,9.49,28.51-22,48S361.74,574,377.23,566Z" />
    <path fill="currentColor"
        d="M406.79,495.53s13,45.6-15.06,71.47c-25,23-43.88-1.46-43.88-1.46s-3,19.5,8,27.5C387.56,616.13,445.25,569.52,406.79,495.53Z" />
    <path fill="currentColor"
        d="M142.43,280c-21.46,6.61-5.49,27.5,6,11.5a23.8,23.8,0,0,1,15-9.5S155.42,276,142.43,280Z" />
    <path fill="currentColor"
        d="M126.62,311.33A118.11,118.11,0,0,0,128,297.42c1.06-9.86.05-22.19-4.56-37.42,0,0,1,16-5,29,0,0,3.5-12.5,0-18.5,0,0-7.5,44.5-52.46,38,0,0,14.49,23.5,45.46-2.5,0,0-.5,6-7.5,11a23.35,23.35,0,0,0-9.48,23s3-6.5,12-9a22.8,22.8,0,0,0,8.84-5.46,19.6,19.6,0,0,0,.66,2.13c8.66,22.33,27.31,9.66,27.31,9.66S123,334.34,126.62,311.33Z" />
    <path fill="currentColor"
        d="M341.76,33.22c11.49,8.32,19,21.8,19,21.8,7.5-32.49-4-41.6-10.49-43.57S340.76.35,340.76.35C330.26,13,332.59,26.6,341.76,33.22Z" />
    <path fill="currentColor" d="M0,142.38v2a8.8,8.8,0,0,1,5-2.5A26.22,26.22,0,0,0,0,142.38Z" />
    <path fill="currentColor"
        d="M44,194.39a38.53,38.53,0,0,0,10.89-9.79c6.83-8.9,10.49-20.78,10.49-33.07,0-21.18-11-43.75-35.94-53.78A84.35,84.35,0,0,0,0,91.49v2.88a81.32,81.32,0,0,1,28.35,6C52.1,110,62.46,131.29,62.49,151.53c0,11.71-3.52,23-9.89,31.32A33.92,33.92,0,0,1,34.44,195.3c-7.58,1.65-17.34,1.16-27.81-6A34.31,34.31,0,0,1,0,183.36v14.75C13.77,204.68,31.35,205.21,44,194.39Z" />
    <path fill="currentColor" d="M0,263.26V264a24.83,24.83,0,0,0,3.81-.61S2.41,263.41,0,263.26Z" />
    <path fill="currentColor" d="M18.73,0A278.94,278.94,0,0,1,0,35.53V41A284.19,284.19,0,0,0,21.86,0Z" />
    <path fill="currentColor"
        d="M149.28,58.81C179.5,50.08,193.55,25.38,193.62,0h-2.89c-.24,26.71-15.85,52.13-51.15,58-9,.37-21.23-1.76-31-13.25C96.09,30,99.33,10.39,110.91,0H87.16C72.16,32.23,103.93,76.53,149.28,58.81Z" />
    <path fill="currentColor" d="M152.08,16.89s8-4.14,6-16.89H147.12C151.89,5.67,152.76,13.21,152.08,16.89Z" />
    <path fill="currentColor" d="M6.08,243.52A18.81,18.81,0,0,1,0,245.67v8.16C7.13,250.25,6.08,243.52,6.08,243.52Z" />
    <path fill="currentColor"
        d="M35.37,276s-18.25,3.36-24.25-20.67c0,0-1.69,1.44-2.16,8.65,0,0-.49,14.67,11,17.06S35.37,276,35.37,276Z" />
    <path fill="currentColor" d="M0,269.61v1.77c.19-.58.4-1.17.62-1.79Z" />
    <path fill="currentColor" d="M3.05,288.67a4.45,4.45,0,0,1-3-.91v3A11,11,0,0,0,3.05,288.67Z" />
    <path fill="currentColor" d="M0,0V23.78C4.37,16.47,8.91,7.33,9.61,0Z" />
    <path fill="currentColor" d="M6.14,119.05A14.18,14.18,0,0,0,0,108.9v21.37A10.83,10.83,0,0,0,6.14,119.05Z" />
    <path fill="currentColor"
        d="M9.69,129.47s9.33-3.61,8.32-14c0,0,8,3,5.91,11.67,0,0,8.2-8.67,2.28-15.71s-19.87-8.06-19.87-8.06,8,3,8.16,9.84c0,0-4.27-9.31-14.49-9.9v.13C2,104.87,17.47,116.38,9.69,129.47Z" />
    <path fill="currentColor" d="M33.61,132.73s8.88-.48,8.88-8.17S31.21,109.9,31.21,109.9,40.1,122.16,33.61,132.73Z" />
    <path fill="currentColor"
        d="M55.3,160.77C60.43,137.7,47,123.91,47,123.91s11.66,19.6-5.13,34.3C29,169.42,15,157.89,21,148.91c0,0-17.93.32-15.37,19.55C8.74,191.5,47.84,194.35,55.3,160.77Z" />
    <path fill="currentColor" d="M0,204.55v7.18a69.69,69.69,0,0,0,13-5.46A48.72,48.72,0,0,1,0,204.55Z" />
    <path fill="currentColor"
        d="M6.63,231.58c5.13-9.61,4.81-15.7,16.33-23.39,0,0-14.3-.56-23,10.41v17.48C2.24,236.32,4.83,235,6.63,231.58Z" />
    <path fill="currentColor"
        d="M33.21,269.4c10.57-1.28,4.8-13.14-2.88-18.27s-10.57-24,2.88-43.58c0,0-13.77,8-17.61,24.68S20.14,271,33.21,269.4Z" />
    <path fill="currentColor"
        d="M40.89,237.67c-4.8,1.6-10.56-5.76-10.56-12.17,0,0-4.81,18.9,8.64,24s23.69-5.77,23.69-5.77-7.68-.64-10.56-3.2S45.7,236.08,40.89,237.67Z" />
    <path fill="currentColor"
        d="M60.43,217.16S57.54,231,42.49,230c0,0,12.17,11.86,27.22,3.53s17-28.2,11.85-39.42c0,0,9.6,9.94,3.2,31.09,0,0,14.41-11.22,10.25-29.8S71,159.8,71,159.8a61.79,61.79,0,0,1-.57,11.87S68,186.56,68.27,188.49c1.23,9.88-2.4,14.9-2.4,14.9a29.55,29.55,0,0,0,.35-15.83c-4.81,11.74-14.33,23.92-33,29.28C33.21,216.84,45.38,229,60.43,217.16Z" />
    <path fill="currentColor"
        d="M106.53,192.17c15.37,11.22,24.33,6.73,24.65,1s-7.68-15.38-22.09-18.26-35.86-25-35.86-25S91.16,181,106.53,192.17Z" />
    <path fill="currentColor"
        d="M102.85,167.1c13.69,6,23.77,4.56,24-.24s-5.28-9.62-12.73-9.86-29.53-4.09-40.58-13.22C73.55,143.78,89.16,161.08,102.85,167.1Z" />
    <path fill="currentColor"
        d="M101.17,139.7c-7.21-1.44-22.1.23-32.9-6.25,0,0,11.28,14.66,25.69,15.62S108.37,141.14,101.17,139.7Z" />
    <path fill="currentColor"
        d="M97.33,107.49s1.44,6.74-8.65,8.9S65.63,118.31,57,109.9c0,0,3.36,18.5,23.05,22.11S112.69,114.7,97.33,107.49Z" />
    <path fill="currentColor"
        d="M87.48,92.59S82.68,96.2,76,92.35,43.78,76,31.29,91.87c0,0,5.76-.48,15.85,5.77S78.83,112.78,87.48,92.59Z" />
    <path fill="currentColor"
        d="M9.2,68.32s14.4-5.52,22.09,9.37c0,0,8.4-14.66-10.09-21.87,0,0,10.81-1.2,14.41,8.89,0,0,4.08-17.54-17.29-18.5,0,0,5.76-6.73,15.37-1,0,0-4.08-12.26-15.13-10.82C11.35,35.37,5.68,41.84,0,49.63v5.56A9.73,9.73,0,0,1,2.71,53.9s-1,.83-2.71,2.26v26.6a53.47,53.47,0,0,1,24.33,6.71S30.33,72.65,9.2,68.32Z" />
    <path fill="currentColor"
        d="M46.17,62.31c7.21,2.4,13.21-10.57,5.53-22.83S27,22.17,15,30.83c0,0,11.77-5.53,20.41,1.68S39,59.91,46.17,62.31Z" />
    <path fill="currentColor"
        d="M43.29,25.78C54.1,33.23,57,41.4,62.5,37.08c2.48-1.94,1.71-8.6-4.56-13.7-7.7-6.28-22.54-10.15-35.78.72A20.79,20.79,0,0,1,43.29,25.78Z" />
    <path fill="currentColor" d="M55.3,3.43C53.14-.18,39-.89,25,18.33c0,0,6.73-5.29,18.25-5.76S57.46,7,55.3,3.43Z" />
    <path fill="currentColor"
        d="M57.22,15.68s15.61,7.46,20.41-7A17.25,17.25,0,0,0,78.33,0H61.08C66.48,5.71,65,15.12,57.22,15.68Z" />
    <path fill="currentColor" d="M38.91,0H35.26a43,43,0,0,0-4.21,6.31A44.78,44.78,0,0,1,38.91,0Z" />
    <path fill="currentColor" d="M177.53,3.43A12.32,12.32,0,0,0,180.67,0H161.94C163.54,2.63,169,9.82,177.53,3.43Z" />
    <path fill="currentColor"
        d="M140.15,25.6s-6,6.95,1.58,13.55,24.61,2.57,32.73-9.2c0,0-5.33,3.65-10.6,3.19,0,0,14.82-2.14,18.95-25.82,0,0-7.66,8.42-20.16,4.08,0,0-.58,7.93,7.07,8.71,0,0-8.95,5.34-18.24.46,0,0-3.27,6.35,3.32,9.66,0,0-5.32-1.92-8.23-.13S140.15,25.6,140.15,25.6Z" />
    <path fill="currentColor"
        d="M148.47,50.54S131.18,49.09,130,36.59s8.89-19.46,13.69-17.06a10.74,10.74,0,0,0-5.52-11c-7-4.09-28.73-.31-25.94,21.63C115.34,54.62,145.11,52,148.47,50.54Z" />
    <path fill="currentColor"
        d="M88,41.88a29.6,29.6,0,0,1-7-10.33c-2.39-6.25-6.72-10.82-10.56-8.41S70.19,35.87,88,41.88Z" />
    <path fill="currentColor"
        d="M67.55,51.25c1.2,3.85,3.84,7.7,11.28,3.37A17.3,17.3,0,0,1,93,52.94S80.28,31.31,63,46.45A7.32,7.32,0,0,1,67.55,51.25Z" />
    <path fill="currentColor"
        d="M88.2,63.76c2.88,7,39.38,17.06,60,2.15,0,0-21.37,6-39.62-.47,0,0-8.16-4.09-12.49-7S85.32,56.78,88.2,63.76Z" />
    <path fill="currentColor"
        d="M89.16,70.48C76.91,64,64.43,56.07,46.66,75.05c0,0,7-1.68,15.12,3.84s38.67,8.66,51.39-2.16A54.38,54.38,0,0,1,89.16,70.48Z" />
    <path fill="currentColor"
        d="M90.36,103.41s11.29-6.73,27.62-.24,36.5,0,46.83-45.42c0,0-6.25,15.86-30.26,21.14S97.56,80.82,90.36,103.41Z" />
    <path fill="currentColor"
        d="M163.29,90.79s2.76-2.83,9.92-6.19,7.68-11.62,8.62-15.92a20.8,20.8,0,0,1,3.33-7.41c-5.21,14.08,2.35,22.6,2.35,22.6s-.08-4.53,5.47-7.39,5.46-9.31,4.17-15.16-.05-8.59-.05-8.59c.11,5.39,7.11,8.63,13.4,8.29S218,52,218,52C201.79,51.83,202,42,202,42c9,13.76,25.11.78,25.11.78-4,1.5-2.67-2.51-12.81-9A45.08,45.08,0,0,1,199.5,18c-2.67,11.67,7.79,20.45,7.79,20.45C197.17,33.67,196.83,23,196.83,23s-5.32,13-8.65,18.67C185.64,46,177.5,56.15,177.5,56.15c1.25-3.79,6-12.15,6-12.15a108.16,108.16,0,0,0-14,16.34C162.21,70.65,163.29,90.79,163.29,90.79Z" />
    <path fill="currentColor"
        d="M214.52,24.82c14.4,8.17,22.32-1.92,16.57-6.49S207.55,18.57,199.86,2A28.54,28.54,0,0,0,214.52,24.82Z" />
    <path fill="currentColor" d="M227.72,5.11A11.64,11.64,0,0,0,232.9,0H204.23C211,7.77,220.84,8.8,227.72,5.11Z" />
    <path fill="currentColor"
        d="M77.23,240c-31.48,19.51-15.49,34,0,26s38.47-39.5,22-74C99.21,192,108.7,220.49,77.23,240Z" />
    <path fill="currentColor"
        d="M91.73,267c-25,23-43.88-1.46-43.88-1.46s-3,19.5,8,27.5c31.71,23.09,89.4-23.52,50.94-97.51C106.79,195.53,119.82,241.13,91.73,267Z" />
    <path fill="currentColor"
        d="M578.46,168.78c-.57,12.14,8.88,23.29,21.54,29.33V183.36c-11.71-13.64-7.31-32.29,0-39v-2C592.55,143.79,579.37,149.09,578.46,168.78Z" />
    <path fill="currentColor"
        d="M535.56,121.71c-14.82,18-21.89,40.89-21.9,62.22a87.07,87.07,0,0,0,3.54,25c7.19,23.85,21.42,37.8,36.27,45.65s30.32,9.72,40.28,9.73c2.45,0,4.54-.12,6.25-.28v-.77c-8.16-.49-28-2.57-45.18-11.23C540.38,244.75,527,231.22,520,208.09a84.12,84.12,0,0,1-3.42-24.16c0-20.7,6.9-43,21.24-60.37s35.89-29.24,60.16-29.24c.69,0,1.37,0,2.06.05V91.49c-.69,0-1.37,0-2.06,0C572.71,91.44,550.47,103.66,535.56,121.71Z" />
    <polygon fill="currentColor" points="531.32 118.97 531.33 118.95 531.32 118.96 531.32 118.97" />
    <path fill="currentColor"
        d="M531.33,119c.23-.21,37.75-29.73,68.67-78V35.53c-5.37,8.65-11,16.74-16.58,24.2C570,77.54,531.66,118.59,531.33,119Z" />
    <path fill="currentColor"
        d="M592.62,243.28a13.07,13.07,0,0,1-2.88-11.3,9.68,9.68,0,0,0-9.36,8.18,14.15,14.15,0,0,0,1.68,9.13s-6.25-1-6-9.61,6.73-11.53,6.73-11.53-12.49-5.78-17.06,7.44,12.26,21.87,27.15,20.19a21.27,21.27,0,0,0,7.13-1.95v-8.16C597.45,246.05,594.62,245.7,592.62,243.28Z" />
    <path fill="currentColor"
        d="M592.29,269.69a39.58,39.58,0,0,0-25.14,8.6c1.75-5.29,14-9.2,14-9.2a85.66,85.66,0,0,1-17.51-4.21c-19.46-6.95-25.42-16.18-37.18-6,0,0,7.78-.77,10.89,6s5.94,15.35,15.34,11.39c11.59-4.88,16.27-3.47,16.27-3.47s-11.61,4.36-10.45,16.09,17.94,13.51,20.12,8.54c0,0-4.63-1.38-2.46-8.79s12.46-10.08,12.46-10.08S586.26,285.66,592,290a7.42,7.42,0,0,0,8,.84v-3c-2-1.55-3.57-5.66,0-16.38v-1.77C598.65,269.64,595.29,269.7,592.29,269.69Z" />
    <path fill="currentColor"
        d="M440.5,153.58c-2.35,11.82,11.58,13.88,16.83,14.53,35.31,4.29,56.09,46.55,56.09,46.55C503,154,443.53,138.43,440.5,153.58Z" />
    <path fill="currentColor"
        d="M489.89,105.8c4.36,7.52,10,7.16,20.68,12.81,6.81,3.6,4.5,14.5,4.5,14.5.45-7-5.28-13.21-9.68-14.33-9.32-2.37-13.29,1.46-13.29,1.46,6.07,1.48,4.78,7.83,12.23,17s6.78,26.94,6.78,26.94c16.5-43.26,13.25-56.71-2.07-65.72s-25.67.9-25.67.9S485.54,98.29,489.89,105.8Z" />
    <path fill="currentColor"
        d="M517.94,93.55C514.1,77.93,530.67,77,533.55,85.86s-6.48,22.83-6.48,22.83c15.12-17.54,13-32,3.6-38-10.18-6.53-28.57-.73-25.22,12S517.94,93.55,517.94,93.55Z" />
    <path fill="currentColor"
        d="M546,55.58C538.6,53.42,535.47,59,535.47,59c5-1,5.52,8.41,7.44,17.06a27.51,27.51,0,0,1-.72,15.14C557.8,75.05,553.48,57.75,546,55.58Z" />
    <path fill="currentColor"
        d="M555.88,61.59s10.57-26-4.08-44.94-35.3-14.43-37.94-5.29a11.68,11.68,0,0,0,4.56,13.46s-1.73-6.9,8.89-10.09C536.91,11.84,546,20.5,546,20.5,530.91,12.33,523.47,26,523.47,26,554.92,16.89,555.88,61.59,555.88,61.59Z" />
    <path fill="currentColor"
        d="M509.54,32.28c-9.35-7.93-1.69-25.49-1.69-25.49-20.64,19.23-11.52,36.3.48,37.73s13.21-11.29,13.21-11.29A9.61,9.61,0,0,1,509.54,32.28Z" />
    <path fill="currentColor"
        d="M564.19,40.93c-.85,28.82-12.55,48.57-12.55,48.57,2.79-3,6.52-9.69,9.72-18.44a90.6,90.6,0,0,0,5.71-30.13c0-13.23-3.94-26.58-15.58-35.75A47.39,47.39,0,0,0,543.37,0h-7.68a43.34,43.34,0,0,1,14,7.44C560.47,15.93,564.56,28.23,564.19,40.93Z" />
    <path fill="currentColor"
        d="M484.53,32.78a44.22,44.22,0,0,0,2.06,13A29.23,29.23,0,0,0,488.52,51c.08.2.16.4.25.6l.05,0c8.71,16.78,32,17.49,41.37,7.14,11.29-12.5.72-28.6.72-28.6,1.92,15.62-15.37,27.64-32.9,18.74-11.25-5.7-10.92-17.74-9.26-25.64a33.36,33.36,0,0,1,9.64-15.35A37,37,0,0,1,512.19,0h-7.5a39.05,39.05,0,0,0-8.24,5.73A36.11,36.11,0,0,0,484.53,32.78Z" />
    <path fill="currentColor"
        d="M580.62,14.24c-5.77-5.76-14.41.49-14.41.49C575.33,16.41,580.38,33,580.38,33c-3.85-8.17-11.53-6-11.53-6,12.25,13,1,35.57,1,35.57,7.93-8.17,9.61-20.91,9.61-20.91A17.81,17.81,0,0,1,578,52.94c13-13.46,21.37-37.5,21.37-37.5-.24,7.7-7.93,21.15-7.93,21.15A151.19,151.19,0,0,0,600,23.78V0H567.1c-.57.78-.89,1.27-.89,1.27C583.5,2.71,580.62,14.24,580.62,14.24Z" />
    <path fill="currentColor" d="M553.43,0h-3c2.72,2.31,4.77,4.15,4.77,4.15S554.34,2.39,553.43,0Z" />
    <path fill="currentColor" d="M560.45,5.59A26,26,0,0,1,560.11,0h-5a100,100,0,0,0,7.53,12.8Z" />
    <path fill="currentColor"
        d="M544.6,223.68s-1.27-11.35,4-17.65c0,0-11.18-3.28-13.55,9.13,0,0-1.53-10.88.85-16.8,0,0-10,3.5-5.3,20.5s30.86,30.67,30.86,30.67-12.12-17.26,6.56-35.59C568,213.94,551,200.59,544.6,223.68Z" />
    <path fill="currentColor"
        d="M540,182s-4.79-7-12.48-.73c0,0,1.44-12.73,13.44-13.93,0,0-4.32-6.26-11.28-2.17,0,0,6.25-11.29,19.45-7.45a11.11,11.11,0,0,0-10.33-9.86c-9.6-1-17.53,13.22-17.53,31,0,0,1.92-7.21,5.53-8.17,0,0-9.61,8.41-.72,37.26C526.11,208,525.14,187.29,540,182Z" />
    <path fill="currentColor"
        d="M544.52,126.72c-10.09,9.86-12,14.42-12,14.42s19.69-5,26.65,13.94c0,0,7.93-13.7-6.47-20.19,0,0,13.92,2.64,13.2,16.35,0,0,10.32-9.62,6.24-20S554.61,116.87,544.52,126.72Z" />
    <path fill="currentColor"
        d="M554.92,115.83s30.16,0,27.69,27.15c0,0,11-5.49,7.95-17.55S567.81,107.59,554.92,115.83Z" />
    <path fill="currentColor"
        d="M573.19,106.75s30.18,5.29,21.22,25.33a17.89,17.89,0,0,0,5.59-1.81V108.9C593.61,104.21,583.2,102.71,573.19,106.75Z" />
    <path fill="currentColor" d="M600,103.44v-.13l-.22,0Z" />
    <path fill="currentColor"
        d="M571.41,181.27s-14.09,15.71.64,27.88c7.94,6.57,19.23,5.22,28,2.58v-7.18C590.56,202.05,578.29,196,571.41,181.27Z" />
    <path fill="currentColor"
        d="M600,236.08V218.6a25.74,25.74,0,0,0-1.69,2.41C592.91,229.74,595.86,235.63,600,236.08Z" />
    <path fill="currentColor"
        d="M585.66,70.48l7.92-4.81S575.33,81.06,566,92.59a60.38,60.38,0,0,1,34-9.83V56.16A132.59,132.59,0,0,0,585.66,70.48Z" />
    <path fill="currentColor" d="M600,55.19V49.63c-3,4.14-6,8.66-9.3,12.92A82.8,82.8,0,0,1,600,55.19Z" />
    <path fill="currentColor"
        d="M484.06,141.69c-1,6.28-3.3,14.2,7.59,19.15s16.82,30.38,19.79,37.32c0,0-3.3-20.15-3.3-33s-8.25-35.32-30.35-32.35C477.79,132.78,485.05,135.42,484.06,141.69Z" />
    <path fill="currentColor"
        d="M432.44,18.5c14,16.5,29.48,6,29.48,6-27.48,46.5-1,63,5.5,68s6,14.5,6,14.5c7-6,5-19.5.5-26.5s-.5-9.5-.5-9.5c10.49,15,24,6,24,6s-15-7-19-26.5C473.73,27.68,486.09,8.39,492.74,0h-5.87a46,46,0,0,0-18.95,25c1.79-11.57,8.62-19.76,14.82-25H450.49a36.24,36.24,0,0,0-5.06,10C442.94,18.5,432.44,18.5,432.44,18.5Z" />
    <path fill="currentColor"
        d="M366,8.5S380.49,32,411.46,6c0,0-.5,6-7.5,11a23.35,23.35,0,0,0-9.48,23s3-6.5,12-9a22.8,22.8,0,0,0,8.84-5.46,19.6,19.6,0,0,0,.66,2.13c8.66,22.33,27.31,9.66,27.31,9.66s-20.32-3-16.65-26c.65-4.08,1-7.86,1.25-11.33H401.56C393.68,6.5,382.31,10.86,366,8.5Z" />
    <path fill="currentColor"
        d="M481.92,392.67c-28.17,18.93-42.34,45.76-42.32,76.41a110.3,110.3,0,0,0,2,20.55c3.24,17,11.12,29.72,21.29,38.53,10.17,9.83,25.68,18.81,48.65,19.51,52.19,1.6,68.2-45.5,57-65s-29.14-19.24-29.14-19.24,18.25,11.86,9,44.23c-5.36,18.67-29.1,34.3-53.78,32.39-22.5-4.07-44.2-19.81-50.15-50.93a107,107,0,0,1-1.95-20c0-29.75,13.57-55.5,41-74,12.58-8.48,30.41-13.89,49.44-13.88,22.92,0,47.51,7.81,67,27.4v-4c-19.77-18.69-44.27-26.29-67-26.26C513.4,378.28,495.07,383.81,481.92,392.67Z" />
    <path fill="currentColor"
        d="M504.69,600h7.5a39,39,0,0,1,11.7-1.8,39.84,39.84,0,0,1,11.8,1.8h7.68a43.32,43.32,0,0,0-19.48-4.69A41.5,41.5,0,0,0,504.69,600Z" />
    <path fill="currentColor"
        d="M598.15,589.73C593.35,577,580.62,583,580.62,583c6.72,2.16,9.84,9.85,9.84,9.85C580.2,584.19,570.1,596,567.1,600H600V576a21.36,21.36,0,0,0-7.62-3.32C600.55,577.23,598.15,589.73,598.15,589.73Z" />
    <path fill="currentColor"
        d="M556.6,590s1.69-11.77-1.2-15.86.48-8.89.48-8.89-12.24-2.41-11,14.9c0,0-2.41-9.38-6.24-11.78s-4.57-4.57-3.61-7.92c0,0-13.21,2.64-5.28,20.9,0,0-8.17-4.33-8.17-13.46,0,0-10.56,3.61-2.4,18.27,0,0-6.48,1.44-9.6-4.09,0,0-2.65,11.05,7.68,10.58s16.81-.73,21.38,1.2c0,0-3.36-4.33-6.25-5.29,0,0,1.8-.66,8.4,3.84,2.79,1.9,6.62,5.06,9.64,7.63h3a41.88,41.88,0,0,1-2.34-8.11s1.71,3.68,4,8.11h5a28,28,0,0,1,6.82-17.72S558,580.84,556.6,590Z" />
    <path fill="currentColor"
        d="M596.68,381.21a74.42,74.42,0,0,1,3.32-28.7V315.45C592.39,329.78,587.65,352.78,596.68,381.21Z" />
    <path fill="currentColor"
        d="M590.79,325.84c4.73-6.12,5.63-15-.43-16.54S576.3,328.18,584,348.49C584,348.49,586.06,332,590.79,325.84Z" />
    <path fill="currentColor"
        d="M532.8,357.62c-1,5.72,4.69,9,27.15,14.3s31.23,16.35,31.23,16.35c-8-17.49-25.89-29.06-38.17-33.1C540.31,351,533.31,354.71,532.8,357.62Z" />
    <path fill="currentColor"
        d="M558,343.72c20.15,12.29,25.87,26,25.87,26-12.11-60.46-35.64-66.21-42.33-59.53S542,333.94,558,343.72Z" />
    <path fill="currentColor"
        d="M449.19,417.8s-13.23,12.68-23.37,6.09c-7.3-4.75-4.36-13.1-4.36-13.1s-10.89,2.91-9.81,15.06,16.05,11.69,16.05,11.69-7.27,4.33-13.78,1.09c0,0,2.6,9.05,11.91,8s19.08-19.6,19.08-19.6S437.75,434.5,431,432C431,432,442.74,432.71,449.19,417.8Z" />
    <path fill="currentColor"
        d="M431.48,516.15c-7.47,5.64-11.56,18.23-8.8,27.05a67.67,67.67,0,0,1,6.38-7.66s-5.43,13.09.52,22.23c0,0,2.68-9.32,5.29-11.61,0,0-5.95,13.89,11.17,21.19,0,0-3.16-9.06-.32-13.68s5.33-14.17,1.21-24.4a40.18,40.18,0,0,1-1.68,10.06s2.38-8.5-6.41-38.2C438.84,501.13,439,510.52,431.48,516.15Z" />
    <path fill="currentColor"
        d="M468.48,576.52s2.79,1.91,4.48,0-1.61-6.26-5.69-11.06-11.76-13-13.93-32.69C453.34,532.77,449.74,558.73,468.48,576.52Z" />
    <path fill="currentColor"
        d="M479.76,571c20.89,17.31,25.94,5.78,16.33.49S469,559.61,458.55,537.42C458.55,537.42,458.87,553.68,479.76,571Z" />
    <path fill="currentColor"
        d="M500.41,567.38c20.18,7,16.57-6.25,6.24-8.17s-24.49-4.33-39.13-15.86C467.52,543.35,480.24,560.42,500.41,567.38Z" />
    <path fill="currentColor"
        d="M510.58,471.73s13.72,5,10.88,19.55c-1.32,6.75-10.58,12-22,12.44,7.18-8.08-2.64-15.65-2.64-15.65-9.61,16.59-24.71,6.62-33.15-1.16a58.45,58.45,0,0,1-9.76-19s-10.24,37.5,23.7,58.65,75.67-11.69,60.83-42.3C528.19,463.08,510.58,471.73,510.58,471.73Z" />
    <path fill="currentColor"
        d="M484.32,460.83c-11.85-3.2-10.24-17-10.24-17,12.8,13.46,20.17,2.89,20.17,2.89-11.53-6.41-12.17-21.48-12.17-21.48,3.21,8.34,13.13,7.06,13.13,7.06-12.17-20.52-1-35.26-1-35.26-32.66,11.86-27.54,36.86-27.54,36.86-2.24-6.09-.64-14.74-.64-14.74s-15.36,26.27-6.08,38.13S484.32,460.83,484.32,460.83Z" />
    <path fill="currentColor"
        d="M566,396.1s-16.57-5.12-37.78,8.66c0,0,15-12.58,33.7-11.86,0,0-3.6-3.2-14.82-5.44,0,0-40.34-5.78-51.22,21.78,0,0,11.2-9.29,17.29-9.29,0,0-23.05,16-5.45,45.18,0,0-1.28-14.74,4.49-20.5,0,0-2.88,24.67,24.33,34,0,0-16.33-20.19-3.52-34.93S558.29,411.17,566,396.1Z" />
    <path fill="currentColor"
        d="M577.68,432.88s5-18.59,22.3-16.74c0,0-23.13-19.71-46.82,2.07-26.37,24.25,2.22,44.12,6.25,24.28s20.13-26,20.13-26S570.86,423.89,577.68,432.88Z" />
    <path fill="currentColor" d="M594,452.85a30.08,30.08,0,0,1,6-1.7v-9.22C597.21,443.56,594.63,446.74,594,452.85Z" />
    <path fill="currentColor"
        d="M583.72,429.1s4.1.85,5.12,3,3.3,5.92,10.24,5c.32,0,.62-.06.92-.08V426C595.35,424.39,589.92,424.91,583.72,429.1Z" />
    <path fill="currentColor" d="M591.47,472.81a18.22,18.22,0,0,1,8.53-1.45V460A14.42,14.42,0,0,0,591.47,472.81Z" />
    <path fill="currentColor"
        d="M581.34,518.11c8-3.19,14.11-2.59,18.66-.41V497.76a21.57,21.57,0,0,0-8.58,2.56C578.75,507.09,581.34,518.11,581.34,518.11Z" />
    <path fill="currentColor"
        d="M587.34,488.31c5.95-3.07,10.21-.77,12.66,2.36v-9.61C590.2,482.42,587.34,488.31,587.34,488.31Z" />
    <path fill="currentColor"
        d="M581.34,531.57c7-1.44,11.53,2.65,15.12,13.23,1.63,4.75,2.38,7.61,3.54,10.26v-32a20.83,20.83,0,0,0-5.21-.9C583.26,521.71,581.34,531.57,581.34,531.57Z" />
    <path fill="currentColor"
        d="M457.63,460.12c-1.77,8,4.75,16.37,8.42,18,12.85,5.55,14-9.32,14-9.32C467.38,474.75,457.63,460.12,457.63,460.12Z" />
    <path fill="currentColor"
        d="M552,560.17c10.09,10.57,21.13,4.81,21.13,4.81-7.2,2.88-15.85-8.66-15.85-8.66C584.7,572.18,590,546.24,590,546.24s-6.72,7.2-14.41,3.84-9.6-2.89-9.6-2.89a13.58,13.58,0,0,0,0-16.34C559.24,546.71,540,549.12,540,549.12S542,549.6,552,560.17Z" />
    <path fill="currentColor"
        d="M536.51,556.64c2.88-3.52-5.12-7.68-13.45-3.84s-19.85,1.28-19.85,1.28S529.42,565.33,536.51,556.64Z" />
    <path fill="currentColor"
        d="M466.92,593.5c6.24-9.5,24.48-4.5,24.48-4.5-21.19-8.38-34.25,1.54-40.91,11h32.25a50.8,50.8,0,0,1,11.15-7.25C480.65,584.5,466.92,593.5,466.92,593.5Z" />
    <path fill="currentColor" d="M486.87,600h5.87a57.23,57.23,0,0,1,3.9-4.5A42.51,42.51,0,0,0,486.87,600Z" />
    <path fill="currentColor"
        d="M448.43,591.5a23.8,23.8,0,0,1,15-9.5s-8-6-21-2C421,586.61,436.94,607.5,448.43,591.5Z" />
    <path fill="currentColor"
        d="M428,597.42c1.06-9.86.05-22.19-4.56-37.42,0,0,1,16-5,29,0,0,3.5-12.5,0-18.5,0,0-3,18.07-16.9,29.5h26.31C427.92,599.13,428,598.25,428,597.42Z" />
    <path fill="currentColor"
        d="M29.77,453C22.7,432,12.26,416.14,0,404.54v4c11.05,11.09,20.47,25.95,27,45.36a190.81,190.81,0,0,1,10.22,61.44c0,30.73-7.49,59.27-18.53,84.63h3.13c10.89-25.37,18.26-53.88,18.29-84.63A193.93,193.93,0,0,0,29.77,453Z" />
    <path fill="currentColor"
        d="M175.52,551.29c-11.78-13.36-29.1-22.42-50.85-22.4-.83,0-1.66,0-2.49,0-35.17,1.09-58,15.56-71.9,29.76s-19,28.1-19.06,28.22a112.88,112.88,0,0,1,22-27.91c13.5-12.25,34.89-26,69-27.19.82,0,1.62,0,2.41,0,21,0,37.39,8.64,48.69,21.44a70.84,70.84,0,0,1,17.38,46.39c0,.13,0,.27,0,.4h2.89c0-.13,0-.27,0-.4A73.89,73.89,0,0,0,175.52,551.29Z" />
    <path fill="currentColor"
        d="M89.16,596.22a38.1,38.1,0,0,0-2,3.78h23.75a27.71,27.71,0,0,1,17.39-7.15c9.25-.41,15.17,2.82,18.82,7.15h10.93a36.42,36.42,0,0,0-1.65-6.42C150.84,577.73,109.57,562.33,89.16,596.22Z" />
    <path fill="currentColor" d="M0,576v24H9.61c0-.22.05-.44.07-.65C10.54,586.2,5,579.41,0,576Z" />
    <path fill="currentColor"
        d="M56.75,585.89C47.87,587.7,40.38,593.6,35.26,600h3.65c4.62-2.9,10.65-5.33,16.39-3.53A13.22,13.22,0,0,1,61.08,600H78.33C76.53,590.26,66,584,56.75,585.89Z" />
    <path fill="currentColor"
        d="M79.17,590.33S95.06,579.61,78,568.09c0,0,11.29.29,12.32,10,0,0,6.6-8.46.48-14.18s-20.61-12-36.57,6.91c0,0,8.33-5.69,11.95-5.93,0,0-13,10.2-18.16,15.87C48.05,580.75,73.19,568.49,79.17,590.33Z" />
    <path fill="currentColor"
        d="M98.85,567.54s.88,6.81,5.68,6.33,8.64-7,1.2-16.11-23.85-7.36-29-4.64C76.75,553.12,95.64,551.52,98.85,567.54Z" />
    <path fill="currentColor"
        d="M114.61,558.73c6.49,14.18,11.29,13.7,14.17,10.57s-.24-15.62-15.37-21.39-24-.47-24-.47S108.13,544.55,114.61,558.73Z" />
    <path fill="currentColor"
        d="M145.84,559.69c12.72,18.27,17.76,18.51,21.85,13.94s-20.42-43.26-60-30.76C107.65,542.87,133.11,541.42,145.84,559.69Z" />
    <path fill="currentColor"
        d="M129.26,553.44s3.85,4.08,4.57,11.78,7.2,11.54,10.32,8.65S142.23,560.17,129.26,553.44Z" />
    <path fill="currentColor"
        d="M172,565.7s10.08,26.67-10.57,33.41c0,0,.18.35.5.89h18.73C186.35,590.81,180.83,574.11,172,565.7Z" />
    <path fill="currentColor"
        d="M232.52,588.29c-11.29,9.37-21.61-2.88-21.61-2.88,4.09,4.08,16.57.72,18.73-7S226,565,226,565c-15.37,20.18-32.18-1-32.18-1,3.36,24,15.13,32,15.13,32-7.21-2.16-11.77-13-11.77-13,1,7.54,3.64,13.11,7,17H232.9C235.57,594.53,232.52,588.29,232.52,588.29Z" />
    <path fill="currentColor"
        d="M218.59,539.5c-8.64-34.13-39.43-30.35-50.66-26.67-13.21,4.32-26.66,12.57-26.66,12.57,36.82-7.53,44.91-1.76,44.91-1.76-17.53-3.37-40.11,3.53-40.11,3.53,6.25,3.2,11.83,3.71,16.33,4.16,24.5,2.4,28.1,5.77,28.1,5.77-8.65-3.37-28.57-3.85-28.57-3.85a67.69,67.69,0,0,1,24.49,16.59c10.8,11.78,20.41,13.7,20.41,13.7s-5.05-2.89-5.53-10.82c-.38-6.31-3.94-7.9-5.39-8.29a28.25,28.25,0,0,1,20.52,16.47c5-18.75-13-26.21-13-26.21A22.69,22.69,0,0,1,218.59,539.5Z" />
    <path fill="currentColor"
        d="M185.29,488.07s-.31,4.17-13.12,0-19.53,4.49-22.1,6.09-7.36,3.84-7.36,3.84c17.29-16.65-1.92-25.31-1.92-25.31s1.6,3.84-4.48,6.73-8.65,8.65-11.53,15.38-13.12,10.26-13.12,10.26C133.75,484.23,120,471.4,120,471.4s-1,7.7-24.66,19.56-32,49-32,49a94.2,94.2,0,0,0,35.47-24c-2.89,4.8-9.85,12.25-9.85,12.25,22.57-5.76,34.58-16.57,34.58-16.57-2.88,4.56-10.56,9.61-10.56,9.61,19.93-.24,33.3-9.14,33.3-9.14-4.49,4.17-12.49,7.7-12.49,7.7C185.94,507.3,185.29,488.07,185.29,488.07Z" />
    <path fill="currentColor"
        d="M90.2,481c21.81-20.4,32.66-25.63,28.82-33.65s-29.49-6.43-51.55,40.7c-16.65,35.57-16,58.4-16,58.4S60.74,508.58,90.2,481Z" />
    <path fill="currentColor"
        d="M108.45,433.92s15.69-3.21,26.26,2.87,23,14.43,29.77,6.1-6.84-26.05-45.14-22.43c-40.66,3.85-58.91,48.06-63.72,77.22C55.62,497.68,72.27,441.29,108.45,433.92Z" />
    <path fill="currentColor"
        d="M101.41,416.93c38.42-16,49.64-25.51,42.9-36.53-9.6-15.7-82.6,22.43-88.36,96.78C56,477.18,63,433,101.41,416.93Z" />
    <path fill="currentColor"
        d="M23.6,410.2c2.88,10.9,19.85,34.93,24,73.39,0,0,6-27.88-5.45-67.94C34.49,388.74,20.72,399.31,23.6,410.2Z" />
    <path fill="currentColor"
        d="M41.53,350.28c-9.92,1.29-11.52,23.39-1.91,43.58s14,61.85,14,61.85C72,374,51.46,349,41.53,350.28Z" />
    <path fill="currentColor"
        d="M81.56,336.82c-7.36-.64-14.41,8.34-13.45,34s-6.73,63.44-6.73,63.44C107.17,361.17,88.92,337.46,81.56,336.82Z" />
    <path fill="currentColor"
        d="M112,339.06c-8.32-3.84-14.41,14.42-16.65,27.56S86,396.43,86,396.43C109.09,375.6,120.3,342.91,112,339.06Z" />
    <path fill="currentColor"
        d="M130.23,369.19c9.6,1.28,12.88-4.55,12.16-8.65-.64-3.69-18.57-15.7-36.18,19.54C106.21,380.08,120.62,367.9,130.23,369.19Z" />
    <path fill="currentColor"
        d="M113.17,417.41s20.26-4.64,35.3.16c0,0,12.49,3.53,13.77,0,.4-1.09,1-3.64-2.88-5.44C150.83,408.12,131,405.81,113.17,417.41Z" />
    <path fill="currentColor"
        d="M24.06,380.11c-3.74-2.43-15.51,5.23-8.35,33.28,0,0-2.1-14.86,5.38-20.8S27.8,382.55,24.06,380.11Z" />
    <path fill="currentColor"
        d="M24.36,357.67c14.63-11.35,13.12-22.32,6.93-25S.73,338.43,6.62,399.87l.52-1.41S9.73,369,24.36,357.67Z" />
    <path fill="currentColor"
        d="M20.62,300.9c-2.19-1.39-7.72-2-13.67,4.5A48.64,48.64,0,0,0,0,315.45v37.06A56,56,0,0,1,11.21,332.6C29.11,312.47,26.77,304.8,20.62,300.9Z" />
    <path fill="currentColor"
        d="M22.61,461.64a50.85,50.85,0,0,0-1.92-8.36S13.73,430.55,0,426v11c6.22-.45,8.3,3.42,8.3,3.42A13.53,13.53,0,0,0,0,441.93v9.22C6.68,449.93,17.25,450.16,22.61,461.64Z" />
    <path fill="currentColor"
        d="M26.78,486.05S26,465.37,13.43,460.3C8.24,458.2,3.63,458.37,0,460v11.41C6.37,471.62,15.83,474.52,26.78,486.05Z" />
    <path fill="currentColor"
        d="M15,587.09c17.77-39.9,9.12-64.89,9.12-64.89,4.56,7.45,4.32,22.35,4.32,22.35,4.33-26.44-2.64-41.34-2.64-41.34,4.57,4.57,5.77,20.43,5.77,20.43,2.64-25.47-9.85-41.82-25-42.78a32.79,32.79,0,0,0-6.56.2v9.61a13.08,13.08,0,0,1,1.51,2.45c1.18,2.52,4.38,4.58,6.65,5.79A19.23,19.23,0,0,0,0,497.76V517.7c8.81,4.22,11.84,14.35,11.84,14.35A22.39,22.39,0,0,0,0,523.1v32c1.42,3.23,3.46,6.16,8.47,11.84C17.6,577.23,15,587.09,15,587.09Z" />
    <path fill="currentColor"
        d="M41.76,333.22c11.49,8.32,19,21.8,19,21.8,7.5-32.49-4-41.6-10.49-43.57s-9.49-11.1-9.49-11.1C30.26,313,32.59,326.6,41.76,333.22Z" />

</svg>