<svg xmlns="http://www.w3.org/2000/svg" viewBox="0 0 980 980">

    <path fill="white"
        d="M50.25,65.2v46l24.61,24.65H356.43l20.11-20.13,20.14,20.16h129l39.62,39.67h35.89a19.38,19.38,0,1,0-.93-18H572.71L533.09,117.9h-129L376.54,90.28,349,117.87H82.31L68.22,103.76V65.2a19.36,19.36,0,1,0-18,0Zm567.52,93.11a7.38,7.38,0,1,1-7.37,7.38A7.39,7.39,0,0,1,617.77,158.31ZM59.24,40.67a7.38,7.38,0,1,1-7.37,7.38A7.39,7.39,0,0,1,59.24,40.67Z" />
    <path fill="white"
        d="M638.44,282.92a19.34,19.34,0,0,0-17.07,10.27H383.88l-68.05-68.14H301.37a19.38,19.38,0,1,0,0,18h7l68.05,68.14H621.26a19.35,19.35,0,1,0,17.18-28.27ZM284.25,241.43a7.38,7.38,0,1,1,7.37-7.38A7.39,7.39,0,0,1,284.25,241.43Zm354.19,68.25a7.38,7.38,0,1,1,7.37-7.38A7.38,7.38,0,0,1,638.44,309.68Z" />
    <path fill="white"
        d="M541.17,322.47A19.38,19.38,0,0,0,524,332.85H448.7a19.38,19.38,0,1,0,0,18H524a19.36,19.36,0,1,0,17.13-28.38ZM431.58,349.23a7.38,7.38,0,1,1,7.37-7.38A7.39,7.39,0,0,1,431.58,349.23Zm109.59,0a7.38,7.38,0,1,1,7.37-7.38A7.38,7.38,0,0,1,541.17,349.23Z" />
    <path fill="white"
        d="M521.81,518.59a19.36,19.36,0,1,0,28.26-17.19V401.78l-27.69-27.73H407.21L298,264.72H262.37a19.38,19.38,0,1,0,0,18h28.21L399.76,392.05H514.93l17.17,17.18v92.25A19.4,19.4,0,0,0,521.81,518.59ZM245.24,281.1a7.38,7.38,0,1,1,7.37-7.38A7.39,7.39,0,0,1,245.24,281.1ZM541.17,526a7.38,7.38,0,1,1,7.37-7.38A7.39,7.39,0,0,1,541.17,526Z" />
    <path fill="white"
        d="M412.22,510a19.36,19.36,0,1,0,28.35-17.14V476.77a19.36,19.36,0,1,0-18,0v16.08A19.39,19.39,0,0,0,412.22,510Zm19.36,7.38A7.38,7.38,0,1,1,439,510,7.39,7.39,0,0,1,431.58,517.37Zm0-65.13a7.38,7.38,0,1,1-7.37,7.38A7.39,7.39,0,0,1,431.58,452.24Z" />
    <path fill="white"
        d="M607.53,852.14a19.38,19.38,0,1,0-17.13-28.38H517.28a19.38,19.38,0,1,0,0,18H590.4A19.38,19.38,0,0,0,607.53,852.14Zm0-26.76a7.38,7.38,0,1,1-7.37,7.38A7.39,7.39,0,0,1,607.53,825.38ZM500.15,840.14a7.38,7.38,0,1,1,7.37-7.38A7.39,7.39,0,0,1,500.15,840.14Z" />
    <path fill="white"
        d="M529.77,764.38A19.36,19.36,0,1,0,549.12,745,19.39,19.39,0,0,0,529.77,764.38ZM549.12,757a7.38,7.38,0,1,1-7.37,7.38A7.38,7.38,0,0,1,549.12,757Z" />
    <path fill="white"
        d="M754.17,816V784.83l11.44-11.45h1.72a19.38,19.38,0,1,0,0-18h-9.17l-22,22v37.94A19.29,19.29,0,0,0,726,838l-24.43,24.47H645.35l-50.08,50.14H478L457.53,933.1a19,19,0,0,0-7-1.34,19.44,19.44,0,1,0,18.83,15l16.08-16.11H602.72l50.07-50.14H709l29.36-29.39A19.36,19.36,0,0,0,754.17,816Zm30.29-59a7.38,7.38,0,1,1-7.37,7.38A7.39,7.39,0,0,1,784.46,757ZM450.52,958.52a7.38,7.38,0,1,1,7.37-7.38A7.38,7.38,0,0,1,450.52,958.52ZM744.58,840.14a7.38,7.38,0,1,1,7.37-7.38A7.39,7.39,0,0,1,744.58,840.14Z" />
    <path fill="white"
        d="M752.75,665H777.4a19.38,19.38,0,1,0,0-18H752.75a19.35,19.35,0,1,0-26.12,26.15v24.53a19.35,19.35,0,1,0,18,0V673.15A19.5,19.5,0,0,0,752.75,665Zm41.78-16.38a7.38,7.38,0,1,1-7.37,7.38A7.39,7.39,0,0,1,794.53,648.62Zm-58.91,0a7.38,7.38,0,1,1-7.37,7.38A7.39,7.39,0,0,1,735.62,648.62Zm0,73.59a7.38,7.38,0,1,1,7.37-7.38A7.39,7.39,0,0,1,735.62,722.21Z" />
    <path fill="white"
        d="M881.91,745a19.38,19.38,0,1,0,19.36,19.38A19.38,19.38,0,0,0,881.91,745Zm0,26.76a7.38,7.38,0,1,1,7.37-7.38A7.39,7.39,0,0,1,881.91,771.76Z" />
    <path fill="white"
        d="M814.06,803.5a19.36,19.36,0,1,0,28.34-17.15V750.79l-29.6-29.63a19.34,19.34,0,1,0-18.27,13.05,19.54,19.54,0,0,0,5.16-.72l24.73,24.76v28.1A19.4,19.4,0,0,0,814.06,803.5Zm-26.9-88.67a7.37,7.37,0,1,1,7.37,7.38A7.38,7.38,0,0,1,787.16,714.83Zm46.25,96a7.38,7.38,0,1,1,7.37-7.38A7.39,7.39,0,0,1,833.41,810.88Z" />
    <path fill="white"
        d="M450.93,714.83a19.4,19.4,0,0,0-10.36-17.15V662a19.38,19.38,0,0,0,0-34.3V594.54a19.35,19.35,0,1,0-18,0v33.1a19.37,19.37,0,0,0,0,34.3v35.73a19.37,19.37,0,1,0,28.34,17.15Zm-19.35-77.41a7.38,7.38,0,1,1-7.37,7.38A7.39,7.39,0,0,1,431.58,637.42Zm0-67.4a7.38,7.38,0,1,1-7.37,7.38A7.39,7.39,0,0,1,431.58,570Zm-7.37,144.81a7.37,7.37,0,1,1,7.37,7.38A7.39,7.39,0,0,1,424.21,714.83Z" />
    <path fill="white"
        d="M716.27,302.3a19.35,19.35,0,1,0,28.34-17.15V270.94a19.35,19.35,0,1,0-18,0v14.21A19.4,19.4,0,0,0,716.27,302.3Zm19.35,7.38A7.38,7.38,0,1,1,743,302.3,7.39,7.39,0,0,1,735.62,309.68Zm0-63.26a7.38,7.38,0,1,1-7.37,7.37A7.38,7.38,0,0,1,735.62,246.42Z" />
    <path fill="white"
        d="M735.62,370.18a19.38,19.38,0,1,0-19.35-19.38A19.38,19.38,0,0,0,735.62,370.18Zm0-26.76a7.38,7.38,0,1,1-7.37,7.38A7.39,7.39,0,0,1,735.62,343.42Z" />
    <path fill="white"
        d="M686.49,331.42a19.38,19.38,0,1,0,19.35,19.38A19.38,19.38,0,0,0,686.49,331.42Zm0,26.76a7.38,7.38,0,1,1,7.37-7.38A7.39,7.39,0,0,1,686.49,358.18Z" />
    <path fill="white"
        d="M638.44,331.42a19.38,19.38,0,1,0,19.35,19.38A19.39,19.39,0,0,0,638.44,331.42Zm0,26.76a7.38,7.38,0,1,1,7.37-7.38A7.38,7.38,0,0,1,638.44,358.18Z" />
    <path fill="white"
        d="M784.46,430.19a19.38,19.38,0,1,0-17.13-28.38H604.9a19.38,19.38,0,1,0,0,18H767.33A19.38,19.38,0,0,0,784.46,430.19Zm0-26.76a7.38,7.38,0,1,1-7.37,7.38A7.39,7.39,0,0,1,784.46,403.43ZM587.77,418.19a7.38,7.38,0,1,1,7.37-7.38A7.39,7.39,0,0,1,587.77,418.19Z" />
    <path fill="white"
        d="M587.77,478.69a19.38,19.38,0,1,0-19.35-19.38A19.39,19.39,0,0,0,587.77,478.69Zm0-26.76a7.38,7.38,0,1,1-7.37,7.38A7.38,7.38,0,0,1,587.77,451.93Z" />
    <path fill="white"
        d="M744.58,478.69a19.38,19.38,0,1,0-19.35-19.38A19.38,19.38,0,0,0,744.58,478.69Zm0-26.76a7.38,7.38,0,1,1-7.37,7.38A7.39,7.39,0,0,1,744.58,451.93Z" />
    <path fill="white"
        d="M411.91,223.8A19.35,19.35,0,0,0,429,213.42h34.33a19.38,19.38,0,1,0,0-18H429a19.36,19.36,0,1,0-17.12,28.38ZM480.48,197a7.38,7.38,0,1,1-7.37,7.38A7.39,7.39,0,0,1,480.48,197Zm-68.57,0a7.38,7.38,0,1,1-7.37,7.38A7.39,7.39,0,0,1,411.91,197Z" />
    <path fill="white"
        d="M703.46,174.69H818.63l18.87,18.89h66.8a19.38,19.38,0,1,0,.72-18H845l-18.87-18.89H703.46a19.38,19.38,0,1,0,0,18Zm218.3,3.2a7.38,7.38,0,1,1-7.37,7.38A7.39,7.39,0,0,1,921.76,177.89ZM679,165.69a7.37,7.37,0,1,1,7.37,7.38A7.38,7.38,0,0,1,679,165.69Z" />
    <path fill="white"
        d="M196,293.07a19.33,19.33,0,0,0-25.29-18.44L166.1,270v-28.8a19.35,19.35,0,1,0-18,0v36.26l10,10a19.34,19.34,0,0,0,9.54,22.74v24.83a19.36,19.36,0,1,0,18,0V310.22A19.39,19.39,0,0,0,196,293.07Zm-12,0a7.37,7.37,0,1,1-7.37-7.38A7.39,7.39,0,0,1,184,293.07Zm-26.93-76.41a7.38,7.38,0,1,1-7.37,7.38A7.39,7.39,0,0,1,157.11,216.66Zm19.56,142.92A7.38,7.38,0,1,1,184,352.2,7.38,7.38,0,0,1,176.67,359.58Z" />
    <path fill="white"
        d="M245.24,342.42A19.36,19.36,0,0,0,262.37,332h18.16l98.25,98.39h87.36l15.39,15.41V560.12a19.33,19.33,0,1,0,18,.26v-122l-25.92-26H386.23L288,314h-25.6a19.36,19.36,0,1,0-17.13,28.38Zm245,242.36a7.38,7.38,0,1,1,7.37-7.38A7.38,7.38,0,0,1,490.25,584.78Zm-245-269.12a7.38,7.38,0,1,1-7.37,7.38A7.38,7.38,0,0,1,245.24,315.66Z" />
    <path fill="white"
        d="M325.46,488.93a19.34,19.34,0,0,0-17.12,10.38H204.14L36.51,667.15A19.37,19.37,0,1,0,48.87,685.2a19.67,19.67,0,0,0-.53-4.43L211.59,517.31h96.75a19.36,19.36,0,1,0,17.12-28.38ZM29.51,692.58a7.38,7.38,0,1,1,7.37-7.38A7.39,7.39,0,0,1,29.51,692.58Zm296-176.9a7.38,7.38,0,1,1,7.37-7.37A7.38,7.38,0,0,1,325.46,515.68Z" />
    <path fill="white"
        d="M107.83,410.79a19.38,19.38,0,1,0,19.35,19.38A19.38,19.38,0,0,0,107.83,410.79Zm0,26.76a7.38,7.38,0,1,1,7.37-7.38A7.39,7.39,0,0,1,107.83,437.55Z" />
    <path fill="white"
        d="M127.18,518.59A19.35,19.35,0,1,0,107.83,538,19.38,19.38,0,0,0,127.18,518.59Zm-26.72,0a7.37,7.37,0,1,1,7.37,7.38A7.39,7.39,0,0,1,100.46,518.59Z" />
    <path fill="white"
        d="M79.33,931.76a19.34,19.34,0,0,0-16.78,9.76H44.12L38.5,935.9v-37a19.35,19.35,0,1,0-18,0v44.44l16.15,16.16H61.91a19.35,19.35,0,1,0,17.42-27.76ZM29.51,874.39a7.38,7.38,0,1,1-7.37,7.38A7.38,7.38,0,0,1,29.51,874.39Zm49.82,84.13a7.38,7.38,0,1,1,7.37-7.38A7.39,7.39,0,0,1,79.33,958.52Z" />
    <path fill="white"
        d="M352.08,767.38V643.55l-45.86-45.92H242.66a19.38,19.38,0,1,0,0,18h56.11L334.1,651V767.58a19.37,19.37,0,1,0,18-.2ZM225.53,614a7.38,7.38,0,1,1,7.37-7.38A7.39,7.39,0,0,1,225.53,614ZM343.3,792a7.38,7.38,0,1,1,7.37-7.38A7.38,7.38,0,0,1,343.3,792Z" />
    <path fill="white"
        d="M46.64,803.18h64a19.38,19.38,0,1,0,0-18h-64a19.38,19.38,0,1,0,0,18Zm81.17-16.38a7.38,7.38,0,1,1-7.37,7.38A7.38,7.38,0,0,1,127.81,786.8ZM22.14,794.18a7.37,7.37,0,1,1,7.37,7.38A7.39,7.39,0,0,1,22.14,794.18Z" />
    <path fill="white"
        d="M799.6,323.17a19.44,19.44,0,1,0,13.17,12.27l20.47-20.5V300a19.36,19.36,0,1,0-18,0v7.52Zm-5.07,26.06a7.38,7.38,0,1,1,7.37-7.38A7.38,7.38,0,0,1,794.53,349.23Zm29.73-73.8a7.38,7.38,0,1,1-7.37,7.38A7.39,7.39,0,0,1,824.26,275.43Z" />
    <path fill="white"
        d="M240.92,186.68l-19.06,19.08a19.51,19.51,0,1,0,12.27,13.17l14.23-14.25h82.18L389,263.21H634.3l33.62,33.67a19.39,19.39,0,1,0,12.47-13l-38.65-38.71H396.44L338,186.68Zm-25.43,44.74a7.38,7.38,0,1,1,7.37-7.38A7.38,7.38,0,0,1,215.49,231.42ZM693.86,302.3a7.37,7.37,0,1,1-7.37-7.38A7.39,7.39,0,0,1,693.86,302.3Z" />
    <path fill="white"
        d="M308.34,566.63a19.38,19.38,0,1,0,0-18H204.55L86.22,667.11A19.37,19.37,0,1,0,98.68,685.2a19,19,0,0,0-.56-4.55L212,566.63Zm17.12-16.38a7.38,7.38,0,1,1-7.37,7.38A7.38,7.38,0,0,1,325.46,550.25ZM79.33,692.58a7.38,7.38,0,1,1,7.37-7.38A7.39,7.39,0,0,1,79.33,692.58Z" />
    <path fill="white"
        d="M267.7,665a19.38,19.38,0,1,0,0-18H155.79l-20.37,20.39a19.43,19.43,0,1,0,11.37,14.07L163.24,665Zm17.12-16.38a7.38,7.38,0,1,1-7.37,7.38A7.39,7.39,0,0,1,284.82,648.62Zm-157,44a7.38,7.38,0,1,1,7.36-7.38A7.38,7.38,0,0,1,127.81,692.58Z" />
    <path fill="white"
        d="M432.92,844.87l44.84,44.9h72.52a19.4,19.4,0,1,0,1.07-18H485.21L450.9,837.42v-40l78.78-78.89v-68L599,581.13v-45.4a19.36,19.36,0,1,0-18,0v37.94l-69.35,69.44v68L432.92,790Zm135,29.52a7.38,7.38,0,1,1-7.37,7.38A7.38,7.38,0,0,1,567.89,874.39Zm22.16-363.18a7.38,7.38,0,1,1-7.37,7.38A7.39,7.39,0,0,1,590.05,511.21Z" />
    <path fill="white"
        d="M647.43,535.73a19.36,19.36,0,1,0-18,0v90.6l-32.34,32.38a19.15,19.15,0,0,0-9.34-2.42,19.38,19.38,0,0,0,0,38.76,19.06,19.06,0,0,0,6-1l4.79,4.8v48.34a19.35,19.35,0,1,0,18,0v-55.8l-10.21-10.22a19.43,19.43,0,0,0,.82-5.54c0-.49,0-1-.08-1.45l40.38-40.43Zm-67,139.94a7.37,7.37,0,1,1,7.37,7.38A7.39,7.39,0,0,1,580.4,675.67Zm27.13,96.09a7.38,7.38,0,1,1,7.37-7.38A7.38,7.38,0,0,1,607.53,771.76Zm30.91-260.55a7.38,7.38,0,1,1-7.37,7.38A7.39,7.39,0,0,1,638.44,511.21Z" />
    <path fill="white"
        d="M705.34,574.73v-39a19.35,19.35,0,1,0-18,0v31.55L667.17,587.5V787.07a19.34,19.34,0,1,0,18-1.31V595Zm-9-63.52a7.38,7.38,0,1,1-7.37,7.38A7.39,7.39,0,0,1,696.35,511.21Zm-19,299.67a7.38,7.38,0,1,1,7.37-7.38A7.39,7.39,0,0,1,677.38,810.88Z" />
    <path fill="white"
        d="M820.53,597.83H768.86l-15.29-15.31V565.4a19.35,19.35,0,1,0-18,0V590l25.82,25.85H828l22.87-22.9V536.48a19.36,19.36,0,1,0-18-1.67v50.67Zm-75.95-57a7.38,7.38,0,1,1-7.37,7.38A7.39,7.39,0,0,1,744.58,540.87Zm98.85-29.66a7.38,7.38,0,1,1-7.37,7.38A7.38,7.38,0,0,1,843.43,511.21Z" />
    <path fill="white"
        d="M872.24,914.83V856.3L931,797.42V712.31a19.35,19.35,0,1,0-18,0V790l-58.79,58.87v58.54L805.11,956.6V980h18v-16Zm49.81-227.05a7.38,7.38,0,1,1-7.37,7.38A7.39,7.39,0,0,1,922.05,687.78Z" />
    <path fill="white"
        d="M950.67,953V909.12a19.35,19.35,0,1,0-18,0v36.47l-8.83,9V980h18V962Zm-16.36-61a7.37,7.37,0,1,1,7.37,7.38A7.39,7.39,0,0,1,934.31,892Z" />
    <path fill="white"
        d="M941.68,813.38A19.32,19.32,0,0,0,923,837.82l-30.59,30.63v70.7L864.37,967v13h18v-5.54l28.06-27.8V875.9L935.26,851a19.24,19.24,0,0,0,23.55-9.26H980v-18H958.81A19.38,19.38,0,0,0,941.68,813.38Zm0,26.76a7.38,7.38,0,1,1,7.37-7.38A7.39,7.39,0,0,1,941.68,840.14Z" />
    <path fill="white"
        d="M961.57,705.59A19.38,19.38,0,1,0,978.7,734H980V716h-1.3A19.38,19.38,0,0,0,961.57,705.59Zm0,26.76a7.38,7.38,0,1,1,7.37-7.38A7.39,7.39,0,0,1,961.57,732.35Z" />
    <path fill="white"
        d="M854.79,633.28v16.18a19.36,19.36,0,1,0,18,0v-8.73l24.81-24.84H980v-18H890.13Zm9,40.71a7.38,7.38,0,1,1,7.37-7.38A7.39,7.39,0,0,1,863.78,674Z" />
    <path fill="white"
        d="M901.69,528.24v-2.79a19.36,19.36,0,1,0-18,0v10.24l21.39,21.43H980v-18H912.55Zm-9-12.56a7.38,7.38,0,1,1,7.37-7.37A7.38,7.38,0,0,1,892.7,515.68Z" />
    <path fill="white"
        d="M785.54,495.17V531.1a19.36,19.36,0,1,0,18,0V503l25-23.43H980v-18H821.46Zm9,60.46a7.38,7.38,0,1,1,7.37-7.38A7.38,7.38,0,0,1,794.53,555.63Z" />
    <path fill="white"
        d="M867,363.36H850.54a19.38,19.38,0,1,0,0,18h9l48.78,48.85H980v-18H915.78Zm-33.58,16.38a7.38,7.38,0,1,1,7.37-7.38A7.39,7.39,0,0,1,833.41,379.74Z" />
    <path fill="white"
        d="M960.52,343.8a19.38,19.38,0,1,0,17.12,28.38H980v-18h-2.36A19.35,19.35,0,0,0,960.52,343.8Zm0,26.76a7.38,7.38,0,1,1,7.37-7.38A7.39,7.39,0,0,1,960.52,370.56Z" />
    <path fill="white"
        d="M960.52,293.3a19.38,19.38,0,1,0,17.12,28.38H980v-18h-2.36A19.33,19.33,0,0,0,960.52,293.3Zm0,26.76a7.38,7.38,0,1,1,7.37-7.38A7.39,7.39,0,0,1,960.52,320.06Z" />
    <path fill="white"
        d="M907.31,293.7a19.46,19.46,0,1,0,13.57,11.87l24-24H980v-18H937.45Zm-4.47,26.22a7.38,7.38,0,1,1,7.37-7.38A7.39,7.39,0,0,1,902.84,319.92Z" />
    <path fill="white"
        d="M889.57,234.69H837.35l-29.58-29.62H552.27L504,156.69H174.24a19.38,19.38,0,1,0,0,18H496.51l48.32,48.38H800.32l29.58,29.62H897l19.32-19.34H980v-18H908.89ZM157.11,173.07a7.38,7.38,0,1,1,7.37-7.38A7.39,7.39,0,0,1,157.11,173.07Z" />
    <path fill="white"
        d="M950.61,141V124.7a19.36,19.36,0,1,0-18,0v23.76L958,173.88h22v-18H965.47Zm-9-26.06a7.38,7.38,0,1,1,7.37-7.38A7.39,7.39,0,0,1,941.62,114.94Z" />
    <path fill="white"
        d="M854,37.81a19.35,19.35,0,1,0,28.34-17.14V0h-18V20.67A19.38,19.38,0,0,0,854,37.81Zm19.35-7.38A7.38,7.38,0,1,1,866,37.81,7.39,7.39,0,0,1,873.36,30.43Z" />
    <polygon fill="white"
        points="838.99 95.69 905.84 95.69 941.84 59.65 941.84 0 923.86 0 923.86 52.19 898.39 77.69 846.43 77.69 823.08 54.31 823.08 0 805.1 0 805.1 61.77 838.99 95.69" />
    <path fill="white"
        d="M736.7,101.81v7.24a19.33,19.33,0,1,0,18,.14l28.43-28.46V0h-18V73.27Zm8.87,31.82a7.38,7.38,0,1,1,7.37-7.38A7.38,7.38,0,0,1,745.57,133.63Z" />
    <path fill="white"
        d="M644.66,68H625.21a19.38,19.38,0,1,0,0,18H652.1l63.68-63.76V0h-18V14.79ZM608.08,84.38A7.38,7.38,0,1,1,615.45,77,7.39,7.39,0,0,1,608.08,84.38Z" />
    <path fill="white"
        d="M623.58,28.81H595.42a19.38,19.38,0,1,0,0,18H631L655.78,22V0h-18V14.57ZM578.29,45.19a7.38,7.38,0,1,1,7.37-7.38A7.39,7.39,0,0,1,578.29,45.19Z" />
    <path fill="white"
        d="M514.53,29.21A19.44,19.44,0,1,0,528.1,41.09l20.63-20.66V0h-18V13Zm-4.47,26.22a7.38,7.38,0,1,1,7.37-7.38A7.38,7.38,0,0,1,510.06,55.43Z" />
    <path fill="white"
        d="M427.86,95H545.44l40.12,40.17h76l68.58-68.67a19.38,19.38,0,1,0-13.48-18.46,19.5,19.5,0,0,0,.84,5.65l-63.39,63.48H593L552.89,77H435.3L411.76,53.43V0h-18V60.89ZM736,40.67a7.38,7.38,0,1,1-7.37,7.38A7.38,7.38,0,0,1,736,40.67Z" />
    <path fill="white"
        d="M318.61,78.64H132.23L116.82,63.21V44.49a19.35,19.35,0,1,0-18,0V70.67l25.94,26H326.05L361.7,61V0h-18V53.49ZM107.83,34.73a7.38,7.38,0,1,1,7.37-7.38A7.39,7.39,0,0,1,107.83,34.73Z" />
    <path fill="white"
        d="M275,48.05A19.36,19.36,0,1,0,303.29,30.9V0h-18V30.9A19.39,19.39,0,0,0,275,48.05Zm19.36-7.38a7.38,7.38,0,1,1-7.37,7.38A7.39,7.39,0,0,1,294.31,40.67Z" />
    <path fill="white"
        d="M235.54,27.35A19.36,19.36,0,1,0,263.88,10.2V0h-18V10.2A19.39,19.39,0,0,0,235.54,27.35ZM254.9,20a7.38,7.38,0,1,1-7.37,7.38A7.39,7.39,0,0,1,254.9,20Z" />
    <path fill="white"
        d="M196.13,48.05A19.36,19.36,0,1,0,224.47,30.9V0h-18V30.9A19.39,19.39,0,0,0,196.13,48.05Zm19.36-7.38a7.38,7.38,0,1,1-7.37,7.38A7.39,7.39,0,0,1,215.49,40.67Z" />
    <path fill="white"
        d="M137.76,48.05A19.35,19.35,0,1,0,166.1,30.9V0h-18V30.9A19.4,19.4,0,0,0,137.76,48.05Zm19.35-7.38a7.38,7.38,0,1,1-7.37,7.38A7.39,7.39,0,0,1,157.11,40.67Z" />
    <path fill="white"
        d="M31.91,615.89a19.39,19.39,0,1,0,1.28-18H1.3v18Zm17.7-15.17a7.38,7.38,0,1,1-7.37,7.38A7.38,7.38,0,0,1,49.61,600.72Z" />
    <path fill="white"
        d="M81.13,841.76a19.38,19.38,0,1,0,0-18H1.3v18Zm17.13-16.38a7.38,7.38,0,1,1-7.37,7.38A7.39,7.39,0,0,1,98.26,825.38Z" />
    <path fill="white"
        d="M146.14,926.79a19.42,19.42,0,1,0-13,12.45l15,15.24V980h18V947.11ZM127.81,928a7.38,7.38,0,1,1,7.36-7.38A7.38,7.38,0,0,1,127.81,928Z" />
    <path fill="white"
        d="M198.79,872.77H115.38a19.38,19.38,0,1,0,0,18h75.93l15.19,15.29V980h18V898.63ZM98.26,889.15a7.38,7.38,0,1,1,7.37-7.38A7.38,7.38,0,0,1,98.26,889.15Z" />
    <path fill="white"
        d="M233.28,838.2V809.79L208.7,785.18H193.11a19.38,19.38,0,1,0,0,18h8.14l14.05,14.07v28.32l30.61,31.13V980h18V869.33ZM176,801.56a7.38,7.38,0,1,1,7.37-7.38A7.39,7.39,0,0,1,176,801.56Z" />
    <path fill="white"
        d="M274.79,829.08V780.81l-11-11a19.39,19.39,0,1,0-12.49,12.95l5.49,5.5v48.17l28.51,29V980h18V858.09Zm-29.55-57.32a7.38,7.38,0,1,1,7.37-7.38A7.39,7.39,0,0,1,245.24,771.76Z" />
    <path fill="white"
        d="M765.2,936.08V980h18V943.53L812.69,914V880a19.35,19.35,0,1,0-18,0v26.56Zm38.5-80.64a7.38,7.38,0,1,1-7.37,7.38A7.39,7.39,0,0,1,803.7,855.44Z" />
    <path fill="white"
        d="M735.62,970.52a19.38,19.38,0,1,0-17.12-28.38h-6.93l-13.77,14V980h18V963.49l2.92-3A19.36,19.36,0,0,0,735.62,970.52Zm0-26.76a7.38,7.38,0,1,1-7.37,7.38A7.39,7.39,0,0,1,735.62,943.76Z" />
    <path fill="white"
        d="M679.22,921a19.38,19.38,0,1,0,0-18H662.38L637.8,928v52h18V935.4L669.92,921Zm17.13-16.38A7.38,7.38,0,1,1,689,912,7.39,7.39,0,0,1,696.35,904.62Z" />
    <path fill="white"
        d="M565.21,959.83l9.06,9.08H590.4a19.38,19.38,0,1,0,0-18h-8.69l-9.06-9.08H544.91l-14.16,14.3V980h18V963.54l3.67-3.71Zm42.32-7.3a7.38,7.38,0,1,1-7.37,7.38A7.39,7.39,0,0,1,607.53,952.53Z" />
    <polygon fill="white"
        points="260.43 733.97 294.23 768.09 294.23 816.83 343.72 866.39 343.72 980 361.7 980 361.7 858.93 312.21 809.38 312.21 760.67 267.91 715.97 1.3 715.97 1.3 733.97 260.43 733.97" />
    <path fill="white"
        d="M411.72,828.49l-19.18-19.21V624.66L381,613.14V522.65L391.64,512V466.6L288.54,363.36H262.37a19.38,19.38,0,1,0,0,18H281.1l92.56,92.69v30.53l-10.6,10.62V620.6l11.5,11.51V816.73L393.75,836l0,144h18ZM245.24,379.74a7.38,7.38,0,1,1,7.37-7.38A7.39,7.39,0,0,1,245.24,379.74Z" />
    <path fill="white"
        d="M71.57,173.88a19.38,19.38,0,1,0,0-18H1.3v18ZM88.7,157.5a7.38,7.38,0,1,1-7.37,7.38A7.39,7.39,0,0,1,88.7,157.5Z" />
    <path fill="white"
        d="M75.62,233.35l23.67,23.7v77.78a19.34,19.34,0,1,0,18,.46v-85.7L83.07,215.35H1.3v18Zm32.21,111.47a7.38,7.38,0,1,1-7.37,7.38A7.39,7.39,0,0,1,107.83,344.82Z" />
    <path fill="white"
        d="M34.09,281.53l16.12,16.14v27.05a19.35,19.35,0,1,0,18,0V290.21L41.54,263.53H1.3v18Zm25.15,52.94a7.38,7.38,0,1,1-7.37,7.38A7.39,7.39,0,0,1,59.24,334.47Z" />
    <path fill="white"
        d="M2.36,321.68a19.38,19.38,0,1,0,0-18H1.3v18ZM19.48,305.3a7.38,7.38,0,1,1-7.37,7.38A7.38,7.38,0,0,1,19.48,305.3Z" />
    <path fill="white"
        d="M7.71,372.18l3.39,3.39A19.39,19.39,0,1,0,23.94,363l-8.78-8.79H1.3v18Zm21.8,2a7.38,7.38,0,1,1-7.37,7.38A7.38,7.38,0,0,1,29.51,374.14Z" />
    <path fill="white"
        d="M63,430.21l29.87-29.9h31.25l29.59,29.62h74.09a19.37,19.37,0,1,0,.78-18H161.11l-29.58-29.62H85.38l-29.87,29.9H1.3v18ZM245.24,414.3a7.38,7.38,0,1,1-7.37,7.38A7.38,7.38,0,0,1,245.24,414.3Z" />
    <path fill="white"
        d="M227.9,479.55a19.37,19.37,0,1,0,.46-18H1.3v18Zm17.34-15.93a7.38,7.38,0,1,1-7.37,7.38A7.38,7.38,0,0,1,245.24,463.62Z" />
    <path fill="white"
        d="M24.8,557.12l19.8-19.84a19.43,19.43,0,1,0-13.21-12.22l-14,14.06H1.3v18Zm24.81-45.91a7.38,7.38,0,1,1-7.37,7.38A7.38,7.38,0,0,1,49.61,511.21Z" />

</svg>