<svg xmlns="http://www.w3.org/2000/svg" viewBox="0 0 1023 1024"><defs><style>.cls-1{fill:none;}</style></defs><title>gamingPattern</title><g id="Layer_2" data-name="Layer 2"><g id="background"><g id="gamingPattern"><rect id="Border" class="cls-1" width="1023" height="1024"/><path id="knight" d="M817.75,570.73l12.41,5.51a9.78,9.78,0,0,0,7.6.15l3.91-1.57a9.78,9.78,0,0,0,5.73-6.26l2.81-9.36a7.31,7.31,0,0,1,3.84-4.77L860.8,551v15.33a14.65,14.65,0,0,1-8.1,13.12l-17.48,8.75a24.44,24.44,0,0,0-13.5,21.86v4.46h97.71V555.93A58.63,58.63,0,0,0,860.8,497.3H815.61A3.66,3.66,0,0,0,812,501a5.17,5.17,0,0,0,.54,2.32l4.34,8.68-2.74,2.74a7.3,7.3,0,0,0-2.14,5.2v41.89A9.76,9.76,0,0,0,817.75,570.73Zm10-44.15a6.11,6.11,0,1,1-6.1,6.11A6.11,6.11,0,0,1,827.77,526.58Zm96.55,97.75H816.83a4.88,4.88,0,0,0-4.88,4.88V639a4.88,4.88,0,0,0,4.88,4.88H924.32A4.88,4.88,0,0,0,929.2,639v-9.78A4.88,4.88,0,0,0,924.32,624.33Z"/><path id="dice" d="M968.46,214.25H870.74a19.54,19.54,0,0,0-19.54,19.54v97.72a19.54,19.54,0,0,0,19.54,19.54h97.72A19.54,19.54,0,0,0,988,331.51V233.79A19.54,19.54,0,0,0,968.46,214.25ZM890.39,321.78a9.77,9.77,0,1,1,9.77-9.77A9.76,9.76,0,0,1,890.39,321.78Zm0-58.63a9.77,9.77,0,1,1,9.77-9.77A9.76,9.76,0,0,1,890.39,263.15Zm29.31,29.32a9.78,9.78,0,1,1,9.78-9.77A9.78,9.78,0,0,1,919.7,292.47ZM949,321.78a9.77,9.77,0,1,1,9.77-9.77A9.76,9.76,0,0,1,949,321.78Zm0-58.63a9.77,9.77,0,1,1,9.77-9.77A9.76,9.76,0,0,1,949,263.15Z"/><path id="dragon" d="M69.88,384.06l53-9.72-27.87,21a4.88,4.88,0,0,0,3.45,8.34h68A75.62,75.62,0,0,1,162,378.2V365.29l-36.56-26.75a19.54,19.54,0,0,0-23.53,1.4L66.06,375.47A4.89,4.89,0,0,0,69.88,384.06Zm170.05,10.4L209.19,379.1a14.68,14.68,0,0,1-8.1-13.11V354.8h19.54l8.58,6.91a9.78,9.78,0,0,0,6.91,2.86h9.37a9.78,9.78,0,0,0,8.75-5.4l4.37-8.74a9.8,9.8,0,0,0-.93-10.24l-22.76-30.35a9.77,9.77,0,0,0-7.82-3.9H154.68A2.44,2.44,0,0,0,153,310.1l18.83,15.37-18.2,7.59a2.44,2.44,0,0,0,0,4.37l18.2,7.59v33.16A65.85,65.85,0,0,0,201.09,433C141.37,435,95.88,445.48,68.53,451.56a5.43,5.43,0,0,0,1.18,10.73h152.4c19.33,0,36.53-14.53,37.56-33.83a35.63,35.63,0,0,0-19.74-34Zm-26.35-68.19,13.94,3.48a7.24,7.24,0,0,1-7.37,5.58,7.13,7.13,0,0,1-6.57-9.06Z"/><path id="gamepad" d="M764.2,746.39H666.47a48.86,48.86,0,1,0,34.88,83.06H729.3a48.86,48.86,0,1,0,34.9-83.06Zm-71,52.53a3.66,3.66,0,0,1-3.67,3.66H673.68v15.88a3.66,3.66,0,0,1-3.66,3.66h-7.33a3.66,3.66,0,0,1-3.66-3.66V802.58H643.15a3.66,3.66,0,0,1-3.67-3.66v-7.33a3.67,3.67,0,0,1,3.67-3.67H659V772a3.66,3.66,0,0,1,3.66-3.66H670a3.66,3.66,0,0,1,3.66,3.66v15.88h15.88a3.67,3.67,0,0,1,3.67,3.67h0Zm66.07,23.29A12.22,12.22,0,1,1,771.51,810,12.22,12.22,0,0,1,759.3,822.21Zm19.54-29.31a12.22,12.22,0,1,1,12.21-12.22A12.21,12.21,0,0,1,778.84,792.9Z"/><path id="ghost" d="M73.09,580.77c-32.09,1-56.82,29-56.82,61.06v80.59a4.88,4.88,0,0,0,8.33,3.45l7.61-5.65a4.88,4.88,0,0,1,6.57.67L51.9,735.65a4.88,4.88,0,0,0,6.91,0l12.43-14a4.89,4.89,0,0,1,7.31,0l12.43,14a4.88,4.88,0,0,0,6.91,0L111,720.89a4.87,4.87,0,0,1,6.56-.67l7.61,5.65a4.88,4.88,0,0,0,8.34-3.45v-83A58.63,58.63,0,0,0,73.09,580.77ZM55.35,649.14a9.77,9.77,0,1,1,9.77-9.77A9.77,9.77,0,0,1,55.35,649.14Zm39.09,0a9.77,9.77,0,1,1,9.77-9.77A9.76,9.76,0,0,1,94.44,649.14Z"/><path id="headset" d="M895.08,904.86H890.2a19.54,19.54,0,0,0-19.55,19.54v14.66A19.54,19.54,0,0,0,890.2,958.6h4.88a9.76,9.76,0,0,0,9.77-9.77v-34.2A9.77,9.77,0,0,0,895.08,904.86Zm83.06,34.2V924.4a19.54,19.54,0,0,0-19.54-19.54h-4.89a9.77,9.77,0,0,0-9.77,9.77v34.2a9.76,9.76,0,0,0,9.77,9.77h4.89A19.54,19.54,0,0,0,978.14,939.06ZM924.4,851.12c-43.61,0-76.78,36.28-78.18,78.17v4.89a4.89,4.89,0,0,0,4.89,4.88H856a4.89,4.89,0,0,0,4.88-4.88v-4.35c0-34.3,28-63.42,62.34-64a63.58,63.58,0,0,1,64.69,63.5h0c0,.74,0,50.6,0,50.6A12.91,12.91,0,0,1,975,992.8H944a14.65,14.65,0,0,0-14.66-14.65h-9.55a14.66,14.66,0,1,0-.23,29.31H975a27.57,27.57,0,0,0,27.57-27.57v-50.6C1001.17,887.4,968,851.12,924.4,851.12Z"/><path id="heart" d="M260.36,830.09c-16.73-14.26-41.62-11.69-57,4.15l-6,6.2-6-6.2c-15.33-15.84-40.25-18.41-57-4.15-19.18,16.37-20.19,45.74-3,63.49l59.08,61a9.58,9.58,0,0,0,13.84,0l59.08-61c17.19-17.75,16.19-47.12-3-63.49Z"/><path id="ouse" d="M617.1,493.75h19.54A48.85,48.85,0,0,0,685.5,444.9V405.81H568.24V444.9A48.86,48.86,0,0,0,617.1,493.75ZM622,337.41H617.1a48.86,48.86,0,0,0-48.86,48.86V396H622Zm14.65,0h-4.88V396H685.5v-9.77A48.85,48.85,0,0,0,636.64,337.41Z"/><path id="keyboard" d="M464.69,680.23H318.12a14.65,14.65,0,0,1-14.65-14.66V577.63A14.66,14.66,0,0,1,318.12,563H464.69a14.66,14.66,0,0,1,14.66,14.66v87.94A14.66,14.66,0,0,1,464.69,680.23ZM342.55,598.4V586.18a3.66,3.66,0,0,0-3.66-3.66H326.67a3.66,3.66,0,0,0-3.66,3.66V598.4a3.66,3.66,0,0,0,3.66,3.66h12.22A3.66,3.66,0,0,0,342.55,598.4Zm29.32,0V586.18a3.67,3.67,0,0,0-3.67-3.66H356a3.66,3.66,0,0,0-3.67,3.66V598.4a3.66,3.66,0,0,0,3.67,3.66H368.2A3.67,3.67,0,0,0,371.87,598.4Zm29.31,0V586.18a3.66,3.66,0,0,0-3.66-3.66H385.3a3.66,3.66,0,0,0-3.66,3.66V598.4a3.66,3.66,0,0,0,3.66,3.66h12.22A3.66,3.66,0,0,0,401.18,598.4Zm29.31,0V586.18a3.66,3.66,0,0,0-3.66-3.66H414.62a3.66,3.66,0,0,0-3.67,3.66V598.4a3.66,3.66,0,0,0,3.67,3.66h12.21A3.66,3.66,0,0,0,430.49,598.4Zm29.32,0V586.18a3.66,3.66,0,0,0-3.67-3.66H443.93a3.66,3.66,0,0,0-3.66,3.66V598.4a3.66,3.66,0,0,0,3.66,3.66h12.21A3.66,3.66,0,0,0,459.81,598.4Zm-102.6,29.31V615.5a3.67,3.67,0,0,0-3.67-3.67H341.33a3.66,3.66,0,0,0-3.66,3.67v12.21a3.66,3.66,0,0,0,3.66,3.66h12.21A3.66,3.66,0,0,0,357.21,627.71Zm29.31,0V615.5a3.66,3.66,0,0,0-3.66-3.67H370.64A3.66,3.66,0,0,0,367,615.5v12.21a3.66,3.66,0,0,0,3.66,3.66h12.22A3.66,3.66,0,0,0,386.52,627.71Zm29.32,0V615.5a3.67,3.67,0,0,0-3.67-3.67H400a3.67,3.67,0,0,0-3.67,3.67v12.21a3.66,3.66,0,0,0,3.67,3.66h12.21A3.66,3.66,0,0,0,415.84,627.71Zm29.31,0V615.5a3.66,3.66,0,0,0-3.66-3.67H429.27a3.66,3.66,0,0,0-3.66,3.67v12.21a3.66,3.66,0,0,0,3.66,3.66h12.22A3.66,3.66,0,0,0,445.15,627.71ZM342.55,657V644.81a3.66,3.66,0,0,0-3.66-3.66H326.67a3.66,3.66,0,0,0-3.66,3.66V657a3.66,3.66,0,0,0,3.66,3.67h12.22A3.66,3.66,0,0,0,342.55,657Zm87.94,0V644.81a3.66,3.66,0,0,0-3.66-3.66H356a3.66,3.66,0,0,0-3.67,3.66V657a3.67,3.67,0,0,0,3.67,3.67h70.84A3.66,3.66,0,0,0,430.49,657Zm29.32,0V644.81a3.66,3.66,0,0,0-3.67-3.66H443.93a3.66,3.66,0,0,0-3.66,3.66V657a3.66,3.66,0,0,0,3.66,3.67h12.21A3.67,3.67,0,0,0,459.81,657Z"/><path id="play" d="M144.26,54.61A75.73,75.73,0,1,0,220,130.34,75.72,75.72,0,0,0,144.26,54.61Zm35.38,83.06L125.9,168.51A7.34,7.34,0,0,1,115,162.1V98.58a7.34,7.34,0,0,1,10.9-6.41l53.74,32.67A7.35,7.35,0,0,1,179.64,137.67Z"/><path id="space" d="M817.5,82.94c-10-4.71-23.46-7.4-36.83-7.4H693.44a20.62,20.62,0,0,0-5.1-4.89h63c-44.84-9.24-47.82-41.53-85.5-41.53h0V68.21H661V29.12c-8.09,0-14.65,8.75-14.65,19.54V68.17c-7.09,0-9.77,3.06-9.77,7.33V87.71c0,4.27,2.69,7.33,9.77,7.33v4.89c-7.09,0-9.77,3.06-9.77,7.32v12.22c0,4.27,2.69,7.33,9.77,7.33v19.54c0,10.79,6.56,19.54,14.65,19.54v-39h4.89v39.08h0c37.68,0,40.66-32.29,85.5-41.53h-63a20.76,20.76,0,0,0,5.1-4.88h87.23c13.37,0,26.8-2.7,36.83-7.41,9.06-4.24,14.48-9.7,14.48-14.58S826.56,87.19,817.5,82.94ZM785.56,109.7a2.45,2.45,0,0,1-2.44-2.45V87.71a2.44,2.44,0,0,1,2.44-2.44C795.3,85.27,795.31,109.7,785.56,109.7Z"/><path id="trophy" d="M519.3,163.62H487.54V151.41a7.33,7.33,0,0,0-7.33-7.33H397.15a7.33,7.33,0,0,0-7.32,7.33v12.21H358.07a7.33,7.33,0,0,0-7.33,7.33v17.1c0,10.9,6.87,22.11,18.9,30.75a71.53,71.53,0,0,0,33.59,12.73C412.82,247.44,424,254,424,254v22H409.37c-10.78,0-19.54,6.32-19.54,17.1v3.66a3.67,3.67,0,0,0,3.66,3.66h90.39a3.67,3.67,0,0,0,3.66-3.66V293.1c0-10.78-8.76-17.1-19.54-17.1H453.34V254s11.21-6.57,20.79-22.48a71.21,71.21,0,0,0,33.59-12.73c12-8.64,18.91-19.85,18.91-30.75V171A7.33,7.33,0,0,0,519.3,163.62ZM381.06,203c-7.45-5.37-10.78-11.36-10.78-14.9v-4.88h19.61a109.35,109.35,0,0,0,3.91,26.32A49.18,49.18,0,0,1,381.06,203Zm126-14.9c0,4.92-5.4,11-10.78,14.9a49.31,49.31,0,0,1-12.76,6.54,109.85,109.85,0,0,0,3.91-26.32h19.63Z"/><path id="wizard" d="M543.54,960.77H397a4.89,4.89,0,0,0-4.89,4.89v9.77a4.88,4.88,0,0,0,4.89,4.88H543.54a4.87,4.87,0,0,0,4.88-4.88v-9.77A4.88,4.88,0,0,0,543.54,960.77Zm-92.73-19.54-19.54-9.77,19.54-9.78,9.78-19.54,9.77,19.54,19.54,9.78-19.54,9.77L465.47,951H529L502.6,889.43a19.54,19.54,0,0,1-.58-13.88L519.22,824,461.94,856.7a39.1,39.1,0,0,0-16.33,18.06L411.73,951h44Zm19.55-68.52,4.88-9.77,4.89,9.77,9.77,4.89-9.77,4.88-4.89,9.77-4.88-9.77-9.77-4.88Z"/></g></g></g></svg>