<svg aria-hidden="true" focusable="false" data-prefix="fas" data-icon="tree" role="img"
	xmlns="http://www.w3.org/2000/svg" viewBox="0 0 384 512">
	<path fill="currentColor"
		d="M378.5,175.3L313.6,22.2c-5.6-13.3-18.7-22-33.2-22H192h-88.4c-14.5,0-27.5,8.7-33.2,22L5.5,175.3c-9.9,23.3,7.2,49,32.5,49H192h154.1C371.3,224.4,388.4,198.6,378.5,175.3z" />
	<path fill="currentColor"
		d="M271.9,449.1h-44.7c-2.3,0-4.2-1.9-4.2-4.2V263.8c0-4.2-3.4-7.6-7.6-7.6H192h-23.4c-4.2,0-7.6,3.4-7.6,7.6v181.1c0,2.3-1.9,4.2-4.2,4.2h-44.7c-26.2,0-47.5,21.3-47.5,47.5v0c0,8.6,7,15.6,15.6,15.6H192h111.8c8.6,0,15.6-7,15.6-15.6v0C319.4,470.4,298.2,449.1,271.9,449.1z" />
</svg>